if (_typeface_js && _typeface_js.loadFace) _typeface_js.loadFace({"glyphs":{"S":{"x_min":39,"x_max":570,"ha":617,"o":"m 398 755 q 386 809 395 787 q 363 843 377 830 q 336 861 350 855 q 306 867 321 867 q 242 841 264 867 q 220 768 220 815 q 245 689 220 725 q 310 616 271 653 q 395 543 349 580 q 479 462 440 507 q 544 364 518 418 q 570 243 570 311 q 549 132 570 180 q 494 52 529 84 q 408 2 458 19 q 297 -14 358 -14 q 190 8 237 -14 q 110 68 143 30 q 59 157 77 106 q 39 263 41 208 l 203 287 q 236 173 208 211 q 305 136 264 136 q 378 159 350 136 q 406 227 406 183 q 380 316 406 277 q 315 391 354 355 q 231 463 276 427 q 146 543 185 500 q 81 640 107 586 q 56 766 56 694 q 125 952 56 887 q 322 1017 195 1017 q 417 998 375 1017 q 489 948 459 980 q 538 871 520 917 q 562 773 556 826 l 398 755 "},"¦":{"x_min":8.46875,"x_max":697.78125,"ha":695,"o":"m 271 488 q 161 507 209 488 q 78 560 112 526 q 26 641 44 594 q 8 741 8 687 q 28 861 8 811 q 86 942 48 911 q 177 988 123 973 q 297 1003 230 1003 l 697 1003 l 697 914 l 620 914 l 620 -111 l 506 -111 l 506 914 l 385 914 l 385 -111 l 271 -111 l 271 488 "},"/":{"x_min":-29,"x_max":415,"ha":386,"o":"m 279 1017 l 415 1017 l 106 -14 l -29 -14 l 279 1017 "},"y":{"x_min":13.890625,"x_max":526.4375,"ha":540,"o":"m 369 747 l 526 747 l 330 -55 q 300 -141 318 -107 q 255 -196 281 -175 q 195 -225 229 -216 q 118 -235 162 -235 l 52 -235 l 52 -107 l 90 -107 q 170 -76 148 -107 q 193 13 193 -45 q 188 61 193 37 q 176 112 183 84 l 13 747 l 172 747 l 272 269 l 275 269 l 369 747 "},"Á":{"x_min":105,"x_max":281,"ha":386,"o":"m 281 -256 l 105 -256 l 135 452 l 250 452 l 281 -256 m 275 747 l 275 583 l 111 583 l 111 747 l 275 747 "},"":{"x_min":75,"x_max":542,"ha":617,"o":"m 542 747 l 542 0 l 394 0 l 394 75 q 349 37 369 54 q 309 9 330 20 q 263 -7 288 -1 q 205 -14 238 -14 q 108 27 142 -14 q 75 142 75 69 l 75 747 l 231 747 l 231 168 q 246 127 231 140 q 286 114 261 114 q 334 127 311 114 q 386 161 358 141 l 386 747 l 542 747 m 110 1036 l 297 1036 l 407 836 l 291 836 l 110 1036 "},"g":{"x_min":25,"x_max":592,"ha":617,"o":"m 592 631 q 579 633 585 633 q 567 633 574 633 q 527 628 546 633 q 492 609 509 623 q 504 547 500 580 q 509 491 509 515 q 494 349 509 406 q 450 256 479 291 q 376 206 421 221 q 271 192 331 192 l 221 192 q 200 180 209 189 q 191 157 191 171 q 220 124 191 132 q 295 114 250 116 q 391 110 339 112 q 487 92 443 108 q 562 42 532 76 q 592 -58 592 8 q 507 -195 592 -154 q 272 -236 423 -236 q 89 -205 154 -236 q 25 -116 25 -174 q 55 -40 25 -72 q 126 0 86 -9 l 126 2 q 75 38 94 15 q 56 97 56 61 q 64 134 56 116 q 87 168 73 153 q 118 196 101 183 q 149 218 134 210 q 101 258 120 239 q 70 307 81 278 q 54 378 59 336 q 50 486 50 421 q 63 615 50 563 q 105 700 76 668 q 180 747 134 733 q 291 761 226 761 q 385 742 342 761 q 464 680 428 723 q 492 719 479 703 q 519 743 506 734 q 550 756 533 752 q 592 761 567 761 l 592 631 m 321 -125 q 425 -111 398 -125 q 453 -69 453 -98 q 425 -27 453 -40 q 321 -13 398 -13 q 216 -27 243 -13 q 189 -69 189 -40 q 216 -111 189 -98 q 321 -125 243 -125 m 275 320 q 313 326 298 320 q 336 351 327 333 q 349 398 346 368 q 353 476 353 429 q 349 554 353 523 q 336 601 346 584 q 313 626 327 619 q 275 633 298 633 q 242 626 256 633 q 217 601 227 619 q 201 554 206 584 q 197 476 197 523 q 201 398 197 429 q 217 351 206 368 q 242 326 227 333 q 275 320 256 320 "},"–":{"x_min":75,"x_max":542,"ha":617,"o":"m 75 0 l 75 747 l 223 747 l 222 671 q 267 709 247 692 q 307 737 286 726 q 353 754 328 748 q 411 761 378 761 q 507 719 473 761 q 542 604 542 677 l 542 0 l 386 0 l 386 578 q 370 619 386 606 q 330 633 355 633 q 282 619 305 633 q 231 585 258 605 l 231 0 l 75 0 m 535 1018 q 519 958 529 988 q 493 906 509 929 q 451 868 476 883 q 391 854 426 854 q 344 862 366 854 q 301 881 322 870 q 260 900 280 892 q 218 908 240 908 q 173 892 186 908 q 159 847 161 877 l 82 847 q 97 906 87 876 q 123 958 107 935 q 165 996 140 981 q 225 1011 190 1011 q 272 1002 250 1011 q 315 984 294 994 q 356 965 336 974 q 398 956 376 956 q 443 972 430 956 q 457 1018 455 987 l 535 1018 "},"ë":{"x_min":-16,"x_max":403,"ha":386,"o":"m 107 0 l 107 1003 l 279 1003 l 279 0 l 107 0 m 117 1255 l 269 1255 l 403 1055 l 275 1055 l 193 1178 l 111 1055 l -16 1055 l 117 1255 "},"ƒ":{"x_min":83,"x_max":563.359375,"ha":617,"o":"m 83 0 l 83 1003 l 543 1003 l 543 853 l 255 853 l 255 594 l 477 594 l 477 444 l 255 444 l 255 150 l 563 150 l 563 0 l 83 0 m 342 1055 l 227 1055 l 336 1255 l 524 1255 l 342 1055 "},"Î":{"x_min":83,"x_max":950.46875,"ha":1003,"o":"m 459 749 q 432 830 459 806 q 362 854 405 854 q 279 817 303 854 q 255 722 255 780 l 255 284 q 279 189 255 226 q 362 153 303 153 q 432 176 405 153 q 459 257 459 200 l 459 749 m 375 0 q 156 78 230 0 q 83 305 83 156 l 83 697 q 156 924 83 846 q 375 1003 230 1003 l 931 1003 l 931 852 l 631 852 l 631 594 l 864 594 l 864 444 l 631 444 l 631 150 l 950 150 l 950 0 l 375 0 "},"\u0007":{"x_min":13.65625,"x_max":602.359375,"ha":617,"o":"m 394 0 l 222 0 l 222 416 l 13 1003 l 188 1003 l 309 620 l 312 620 l 427 1003 l 602 1003 l 394 416 l 394 0 m 325 1055 l 210 1055 l 319 1255 l 507 1255 l 325 1055 "},"e":{"x_min":67,"x_max":550,"ha":617,"o":"m 394 472 l 394 510 q 371 604 394 576 q 308 633 349 633 q 245 604 267 633 q 223 510 223 576 l 223 472 l 394 472 m 550 344 l 223 344 l 223 235 q 245 142 223 170 q 308 114 267 114 q 371 142 349 114 q 394 236 394 170 l 394 252 l 550 252 q 535 144 548 193 q 493 60 522 95 q 418 5 463 24 q 308 -14 373 -14 q 196 6 241 -14 q 121 63 150 26 q 79 151 91 99 q 67 263 67 202 l 67 483 q 79 595 67 544 q 121 683 91 647 q 196 740 150 720 q 308 761 241 761 q 420 740 375 761 q 495 683 466 720 q 537 595 525 647 q 550 483 550 544 l 550 344 "},"J":{"x_min":4.609375,"x_max":303,"ha":386,"o":"m 4 136 l 40 136 q 110 156 90 136 q 131 219 131 177 l 131 1003 l 303 1003 l 303 199 q 291 113 303 152 q 253 45 280 73 q 179 1 226 16 q 61 -14 132 -14 l 4 -14 l 4 136 "},"»":{"x_min":19,"x_max":343,"ha":369,"o":"m 19 877 q 68 980 23 944 q 188 1017 113 1017 q 297 987 259 1017 q 336 894 336 957 l 336 605 q 338 581 336 594 q 343 558 340 569 l 246 558 q 243 571 246 564 q 240 587 241 578 q 184 558 212 566 q 121 550 157 550 q 44 578 70 550 q 19 651 19 607 q 71 771 19 725 q 228 856 124 817 l 228 882 q 216 922 228 910 q 180 934 205 934 q 138 918 149 934 q 127 877 128 902 l 19 877 m 228 776 q 176 746 195 759 q 145 720 156 733 q 130 696 134 708 q 127 669 127 684 q 167 633 127 633 q 204 645 188 633 q 228 674 220 658 l 228 776 "},"©":{"x_min":28,"x_max":1083,"ha":1111,"o":"m 555 -14 q 355 22 451 -14 q 186 125 259 58 q 71 288 114 193 q 28 501 28 383 q 71 713 28 618 q 186 875 114 808 q 355 980 259 943 q 555 1017 451 1017 q 755 980 659 1017 q 924 875 851 943 q 1039 713 996 808 q 1083 501 1083 618 q 1039 288 1083 383 q 924 125 996 193 q 755 22 851 58 q 555 -14 659 -14 m 947 501 q 916 665 947 590 q 832 794 885 740 q 708 879 779 849 q 555 909 637 909 q 402 879 473 909 q 277 794 330 849 q 194 665 225 740 q 164 501 164 590 q 194 337 164 412 q 277 208 225 262 q 402 123 330 153 q 555 94 473 94 q 708 123 637 94 q 832 208 779 153 q 916 337 885 262 q 947 501 947 412 m 826 414 q 794 323 817 363 q 737 254 770 282 q 662 211 704 226 q 574 197 620 197 q 454 220 508 197 q 360 285 399 244 q 300 383 321 327 q 280 504 280 440 q 300 626 280 570 q 358 724 320 683 q 449 788 395 765 q 572 811 504 811 q 661 797 619 811 q 736 756 704 783 q 791 689 769 729 q 822 597 813 650 l 713 597 q 663 676 702 650 q 572 703 624 703 q 451 648 492 703 q 411 506 411 594 q 422 428 411 465 q 456 364 434 391 q 507 321 477 337 q 574 305 537 305 q 670 333 633 305 q 713 414 706 361 l 826 414 "},"ò":{"x_min":83,"x_max":612,"ha":695,"o":"m 83 1003 l 255 1003 l 255 245 q 347 136 255 136 q 440 245 440 136 l 440 1003 l 612 1003 l 612 252 q 541 54 612 122 q 347 -14 471 -14 q 153 54 223 -14 q 83 252 83 122 l 83 1003 m 364 1055 l 249 1055 l 358 1255 l 546 1255 l 364 1055 "},"^":{"x_min":77.78125,"x_max":755.609375,"ha":833,"o":"m 77 419 l 341 1003 l 491 1003 l 755 419 l 604 419 l 415 839 l 226 419 l 77 419 "},"\f":{"x_min":75,"x_max":550,"ha":617,"o":"m 231 1003 l 231 676 l 234 676 q 299 740 265 720 q 391 761 333 761 q 507 708 464 761 q 550 552 550 655 l 550 194 q 507 38 550 91 q 391 -14 464 -14 q 346 -9 366 -14 q 308 6 326 -4 q 272 31 290 16 q 231 63 254 45 l 231 -236 l 75 -236 l 75 1003 l 231 1003 m 231 152 q 275 125 254 136 q 319 114 295 114 q 372 137 351 114 q 394 234 394 161 l 394 512 q 372 609 394 585 q 319 633 351 633 q 275 621 295 633 q 231 594 254 610 l 231 152 "},"«":{"x_min":56,"x_max":353,"ha":309,"o":"m 171 836 l 56 836 l 165 1036 l 353 1036 l 171 836 "},"D":{"x_min":83,"x_max":612,"ha":695,"o":"m 255 142 l 315 142 q 412 172 385 142 q 440 282 440 203 l 440 720 q 412 830 440 799 q 315 861 385 861 l 255 861 l 255 142 m 83 1003 l 339 1003 q 543 929 474 1003 q 612 700 612 855 l 612 302 q 543 73 612 147 q 339 0 474 0 l 83 0 l 83 1003 "},"ÿ":{"x_min":-55,"x_max":364,"ha":308,"o":"m 230 836 l 78 836 l -55 1036 l 72 1036 l 154 912 l 236 1036 l 364 1036 l 230 836 "},"":{"x_min":67,"x_max":550,"ha":617,"o":"m 394 472 l 394 510 q 371 604 394 576 q 308 633 349 633 q 245 604 267 633 q 223 510 223 576 l 223 472 l 394 472 m 550 344 l 223 344 l 223 235 q 245 142 223 170 q 308 114 267 114 q 371 142 349 114 q 394 236 394 170 l 394 252 l 550 252 q 535 144 548 193 q 493 60 522 95 q 418 5 463 24 q 308 -14 373 -14 q 196 6 241 -14 q 121 63 150 26 q 79 151 91 99 q 67 263 67 202 l 67 483 q 79 595 67 544 q 121 683 91 647 q 196 740 150 720 q 308 761 241 761 q 420 740 375 761 q 495 683 466 720 q 537 595 525 647 q 550 483 550 544 l 550 344 m 110 1036 l 297 1036 l 407 836 l 291 836 l 110 1036 "},"\u000e":{"x_min":61,"x_max":555,"ha":616,"o":"m 99 853 l 99 1003 l 555 1003 l 555 839 l 238 150 l 555 150 l 555 0 l 61 0 l 61 163 l 381 853 l 99 853 m 384 1055 l 232 1055 l 99 1255 l 226 1255 l 308 1131 l 390 1255 l 518 1255 l 384 1055 "},"í":{"x_min":-5,"x_max":292,"ha":386,"o":"m 107 0 l 107 1003 l 279 1003 l 279 0 l 107 0 m -5 1255 l 182 1255 l 292 1055 l 176 1055 l -5 1255 "},"ˆ":{"x_min":47,"x_max":545,"ha":617,"o":"m 58 527 q 131 701 64 641 q 308 761 198 761 q 475 711 416 761 q 535 558 535 661 l 535 79 q 538 40 535 61 q 545 0 542 19 l 395 0 q 391 29 393 15 q 387 58 388 44 q 302 4 342 22 q 205 -14 262 -14 q 86 33 126 -14 q 47 154 47 81 q 67 263 47 215 q 128 352 87 312 q 233 426 170 392 q 379 492 295 460 l 379 537 q 302 633 379 633 q 233 604 250 633 q 214 527 216 576 l 58 527 m 379 379 q 292 323 326 348 q 238 274 258 298 q 210 229 218 251 q 203 182 203 206 q 221 129 203 145 q 275 114 239 114 q 333 134 306 114 q 379 183 359 155 l 379 379 m 110 1036 l 297 1036 l 407 836 l 291 836 l 110 1036 "},"w":{"x_min":8.328125,"x_max":763.953125,"ha":772,"o":"m 327 746 l 443 746 l 526 280 l 529 280 l 613 747 l 763 747 l 591 0 l 466 0 l 381 472 l 379 472 l 277 0 l 152 0 l 8 747 l 158 747 l 226 280 l 229 280 l 327 746 "},"$":{"x_min":41.34375,"x_max":575,"ha":617,"o":"m 267 1125 l 350 1125 l 350 1003 q 458 958 408 991 q 543 876 508 925 l 437 786 q 402 836 422 812 q 350 866 381 859 l 350 579 q 434 521 394 551 q 506 454 475 491 q 556 372 537 418 q 575 269 575 327 q 560 170 575 218 q 517 87 545 123 q 446 27 488 51 q 350 0 404 4 l 350 -161 l 267 -161 l 267 0 q 136 52 194 6 q 41 156 78 98 l 156 244 q 198 176 170 208 q 267 133 226 144 l 267 459 q 188 513 226 484 q 120 576 149 541 q 73 653 91 611 q 55 746 55 695 q 68 838 55 794 q 110 916 82 882 q 176 973 137 950 q 267 1003 215 996 l 267 1125 m 267 866 q 215 827 234 855 q 197 764 197 800 q 215 686 197 718 q 266 625 234 654 l 267 866 m 350 133 q 410 181 393 150 q 428 262 428 213 q 406 344 428 313 q 349 407 384 375 l 350 133 "},"\\":{"x_min":-29,"x_max":415,"ha":386,"o":"m 415 -14 l 279 -14 l -29 1017 l 106 1017 l 415 -14 "},"Ì":{"x_min":16.671875,"x_max":600.046875,"ha":617,"o":"m 238 372 l 377 372 l 309 802 l 306 802 l 238 372 m 183 0 l 16 0 l 201 1003 l 415 1003 l 600 0 l 433 0 l 402 222 l 213 222 l 183 0 m 535 1237 q 519 1177 529 1207 q 493 1125 509 1148 q 451 1087 476 1102 q 391 1073 426 1073 q 344 1081 366 1073 q 301 1100 322 1089 q 260 1119 280 1111 q 218 1127 240 1127 q 173 1111 186 1127 q 159 1066 161 1096 l 82 1066 q 97 1125 87 1095 q 123 1177 107 1154 q 165 1215 140 1200 q 225 1230 190 1230 q 272 1221 250 1230 q 315 1203 294 1213 q 356 1184 336 1193 q 398 1175 376 1175 q 443 1191 430 1175 q 457 1237 455 1206 l 535 1237 "},"µ":{"x_min":75,"x_max":542,"ha":617,"o":"m 542 747 l 542 0 l 394 0 l 394 75 q 353 41 371 56 q 317 14 335 26 q 278 -4 298 2 q 231 -14 258 -11 l 231 -236 l 75 -236 l 75 747 l 231 747 l 231 168 q 246 127 231 140 q 286 114 261 114 q 334 127 311 114 q 386 161 358 141 l 386 747 l 542 747 "},"Ç":{"x_min":88,"x_max":617,"ha":695,"o":"m 380 160 l 247 160 l 88 375 l 247 588 l 385 588 l 222 374 l 380 160 m 612 160 l 479 160 l 319 375 l 479 588 l 617 588 l 454 374 l 612 160 "},"’":{"x_min":56,"x_max":353,"ha":308,"o":"m 76 0 l 76 747 l 232 747 l 232 0 l 76 0 m 171 836 l 56 836 l 165 1036 l 353 1036 l 171 836 "},"-":{"x_min":61,"x_max":401,"ha":462,"o":"m 61 310 l 61 438 l 401 438 l 401 310 l 61 310 "},"Q":{"x_min":83,"x_max":663.390625,"ha":695,"o":"m 663 -75 q 617 -72 639 -75 q 574 -59 595 -69 q 532 -31 553 -50 q 488 17 511 -12 q 347 -14 431 -14 q 229 6 279 -14 q 147 61 180 26 q 99 143 115 95 q 83 243 83 190 l 83 759 q 99 859 83 812 q 147 941 115 907 q 229 996 180 976 q 347 1017 279 1017 q 465 996 415 1017 q 547 941 514 976 q 595 859 579 907 q 612 759 612 812 l 612 243 q 582 113 612 170 q 630 82 612 88 q 663 74 649 76 l 663 -75 m 360 358 q 394 338 374 351 q 440 297 414 325 l 440 755 q 420 839 440 812 q 347 867 400 867 q 274 839 294 867 q 255 755 255 812 l 255 247 q 274 163 255 190 q 347 136 294 136 q 405 151 386 136 q 379 188 390 179 q 360 205 368 198 l 360 358 "},"M":{"x_min":74,"x_max":774,"ha":849,"o":"m 774 1003 l 774 0 l 624 0 l 624 783 l 621 783 l 465 0 l 382 0 l 227 783 l 224 783 l 224 0 l 74 0 l 74 1003 l 300 1003 l 422 416 l 425 416 l 547 1003 l 774 1003 "},"C":{"x_min":83,"x_max":603,"ha":695,"o":"m 431 668 l 431 746 q 405 838 431 810 q 347 867 380 867 q 274 839 294 867 q 255 755 255 812 l 255 247 q 274 163 255 190 q 347 136 294 136 q 412 162 394 136 q 431 237 431 188 l 431 358 l 603 358 l 603 242 q 587 142 603 190 q 539 61 571 95 q 460 6 508 26 q 347 -14 412 -14 q 229 6 279 -14 q 147 61 180 26 q 98 143 114 95 q 83 243 83 190 l 83 759 q 98 859 83 812 q 147 941 114 907 q 229 996 180 976 q 347 1017 279 1017 q 460 995 412 1017 q 539 936 508 973 q 587 848 571 898 q 603 741 603 798 l 603 668 l 431 668 "},"œ":{"x_min":75,"x_max":542,"ha":617,"o":"m 542 747 l 542 0 l 394 0 l 394 75 q 349 37 369 54 q 309 9 330 20 q 263 -7 288 -1 q 205 -14 238 -14 q 108 27 142 -14 q 75 142 75 69 l 75 747 l 231 747 l 231 168 q 246 127 231 140 q 286 114 261 114 q 334 127 311 114 q 386 161 358 141 l 386 747 l 542 747 m 325 836 l 210 836 l 319 1036 l 507 1036 l 325 836 "},"!":{"x_min":105,"x_max":281,"ha":386,"o":"m 105 1003 l 281 1003 l 250 294 l 135 294 l 105 1003 m 111 0 l 111 164 l 275 164 l 275 0 l 111 0 "},"ç":{"x_min":16.671875,"x_max":600.046875,"ha":617,"o":"m 238 372 l 377 372 l 309 802 l 306 802 l 238 372 m 183 0 l 16 0 l 201 1003 l 415 1003 l 600 0 l 433 0 l 402 222 l 213 222 l 183 0 m 325 1055 l 210 1055 l 319 1255 l 507 1255 l 325 1055 "},"È":{"x_min":78,"x_max":607,"ha":695,"o":"m 472 374 l 309 588 l 447 588 l 607 375 l 447 160 l 314 160 l 472 374 m 240 374 l 78 588 l 215 588 l 375 375 l 215 160 l 82 160 l 240 374 "},"\u0015":{"x_min":66.765625,"x_max":883,"ha":925,"o":"m 91 -14 l 661 1017 l 787 1017 l 217 -14 l 91 -14 m 139 871 l 66 871 l 66 937 q 141 973 107 953 q 204 1017 176 993 l 272 1017 l 272 406 l 139 406 l 139 871 m 553 0 l 553 112 q 705 312 656 230 q 755 460 755 394 q 716 499 755 499 q 684 485 696 499 q 672 452 672 471 l 672 426 l 553 426 l 553 453 q 566 515 553 487 q 602 565 579 544 q 659 599 626 587 q 731 611 693 611 q 794 599 766 611 q 842 570 821 588 q 872 528 862 552 q 883 477 883 504 q 876 402 883 440 q 851 322 870 365 q 797 229 833 280 q 704 111 762 177 l 879 111 l 879 0 l 553 0 "},"{":{"x_min":0.21875,"x_max":374.90625,"ha":386,"o":"m 0 492 q 54 518 30 492 q 78 603 78 544 l 78 883 q 108 983 78 950 q 222 1017 138 1017 l 374 1017 l 374 950 l 261 950 q 222 931 233 950 q 211 880 211 912 l 211 611 q 199 539 211 569 q 170 491 187 509 q 136 463 154 472 q 106 452 118 454 l 105 448 q 136 438 118 447 q 170 410 154 429 q 199 361 187 391 q 211 286 211 331 l 211 16 q 222 -34 211 -15 q 261 -53 233 -53 l 374 -53 l 374 -120 l 222 -120 q 108 -86 138 -120 q 78 13 78 -53 l 78 299 q 54 384 78 358 q 0 411 30 411 l 0 492 "},"X":{"x_min":19.453125,"x_max":597.265625,"ha":617,"o":"m 216 525 l 33 1003 l 202 1003 l 308 684 l 311 684 l 406 1003 l 576 1003 l 402 525 l 597 0 l 427 0 l 311 365 l 308 365 l 188 0 l 19 0 l 216 525 "},"ô":{"x_min":83,"x_max":612,"ha":695,"o":"m 83 1003 l 255 1003 l 255 245 q 347 136 255 136 q 440 245 440 136 l 440 1003 l 612 1003 l 612 252 q 541 54 612 122 q 347 -14 471 -14 q 153 54 223 -14 q 83 252 83 122 l 83 1003 m 149 1255 l 336 1255 l 446 1055 l 330 1055 l 149 1255 "},"¼":{"x_min":28,"x_max":341,"ha":369,"o":"m 227 859 q 184 928 227 928 q 142 859 142 928 l 142 707 q 184 639 142 639 q 227 707 227 639 l 227 859 m 28 850 q 63 970 28 923 q 184 1017 98 1017 q 306 971 271 1017 q 341 850 341 925 l 341 718 q 306 596 341 643 q 184 550 271 550 q 63 597 98 550 q 28 718 28 644 l 28 850 "},"#":{"x_min":13.890625,"x_max":602.828125,"ha":617,"o":"m 566 297 l 466 297 l 433 0 l 308 0 l 343 297 l 230 297 l 197 0 l 70 0 l 105 297 l 13 297 l 13 405 l 119 405 l 140 597 l 48 597 l 48 705 l 154 705 l 188 1002 l 312 1002 l 277 705 l 390 705 l 425 1002 l 548 1002 l 513 705 l 602 705 l 602 597 l 502 597 l 480 405 l 566 405 l 566 297 m 266 597 l 244 405 l 355 405 l 377 597 l 266 597 "},"\u0018":{"x_min":42,"x_max":877.78125,"ha":925,"o":"m 711 245 l 711 429 l 708 429 l 622 245 l 711 245 m 711 139 l 513 139 l 513 249 l 692 601 l 825 601 l 825 245 l 877 245 l 877 139 l 825 139 l 825 0 l 711 0 l 711 139 m 129 -14 l 698 1017 l 825 1017 l 255 -14 l 129 -14 m 161 580 l 161 550 q 198 508 161 508 q 226 520 217 508 q 236 562 236 533 l 236 596 q 216 658 236 645 q 157 672 197 672 l 157 775 q 214 789 195 775 q 233 855 233 804 q 224 895 233 880 q 196 911 216 911 q 170 899 178 911 q 162 872 162 887 l 162 849 l 46 849 l 46 876 q 87 978 46 939 q 202 1017 129 1017 q 272 1004 243 1017 q 322 970 302 991 q 351 921 341 948 q 361 862 361 893 q 348 778 361 809 q 295 724 335 747 q 355 668 341 701 q 369 574 369 635 q 328 440 369 484 q 195 397 287 397 q 83 431 125 397 q 42 545 42 466 l 42 580 l 161 580 "},")":{"x_min":45.109375,"x_max":342,"ha":386,"o":"m 178 1017 q 298 750 254 897 q 342 448 342 603 q 298 147 342 294 q 178 -119 254 0 l 45 -119 q 166 148 124 3 q 209 448 209 293 q 166 749 209 604 q 45 1017 124 894 l 178 1017 "},"\u0002":{"x_min":67,"x_max":577.78125,"ha":617,"o":"m 394 451 q 371 537 394 511 q 308 564 349 564 q 245 537 267 564 q 223 451 223 511 l 223 226 q 245 140 223 166 q 308 114 267 114 q 371 140 349 114 q 394 226 394 166 l 394 451 m 577 899 l 445 848 q 520 660 491 766 q 550 435 550 555 l 550 241 q 537 137 550 184 q 495 56 525 90 q 420 4 466 23 q 308 -14 375 -14 q 196 4 241 -14 q 121 56 150 23 q 79 137 91 90 q 67 241 67 184 l 67 436 q 79 540 67 493 q 121 621 91 587 q 196 673 150 654 q 308 692 241 692 q 332 691 321 692 q 359 689 344 690 q 344 748 357 720 q 319 800 332 776 l 173 744 l 136 844 l 265 893 q 235 932 251 912 q 200 969 220 952 l 319 1003 q 384 938 353 977 l 536 997 l 577 899 "},"\u001c":{"x_min":65.28125,"x_max":768.109375,"ha":833,"o":"m 65 283 l 65 419 l 768 419 l 768 283 l 65 283 "},"ø":{"x_min":-50,"x_max":358,"ha":308,"o":"m -50 974 l 358 974 l 358 885 l -50 885 l -50 974 "},"â":{"x_min":66.4375,"x_max":236,"ha":308,"o":"m 236 0 l 140 -172 l 66 -172 l 134 0 l 72 0 l 72 164 l 236 164 l 236 0 "},"}":{"x_min":11.09375,"x_max":385.78125,"ha":386,"o":"m 385 406 q 331 379 355 406 q 308 294 308 353 l 308 13 q 277 -86 308 -53 q 163 -120 247 -120 l 11 -120 l 11 -53 l 125 -53 q 163 -34 152 -53 q 175 16 175 -15 l 175 286 q 186 358 175 328 q 215 406 198 387 q 249 434 231 425 q 280 445 267 443 l 280 449 q 249 460 267 452 q 215 487 231 468 q 186 535 198 506 q 175 611 175 565 l 175 880 q 163 931 175 912 q 125 950 152 950 l 11 950 l 11 1017 l 163 1017 q 277 983 247 1017 q 308 883 308 950 l 308 598 q 331 513 308 539 q 385 487 355 487 l 385 406 "},"‰":{"x_min":47,"x_max":545,"ha":617,"o":"m 58 527 q 131 701 64 641 q 308 761 198 761 q 475 711 416 761 q 535 558 535 661 l 535 79 q 538 40 535 61 q 545 0 542 19 l 395 0 q 391 29 393 15 q 387 58 388 44 q 302 4 342 22 q 205 -14 262 -14 q 86 33 126 -14 q 47 154 47 81 q 67 263 47 215 q 128 352 87 312 q 233 426 170 392 q 379 492 295 460 l 379 537 q 302 633 379 633 q 233 604 250 633 q 214 527 216 576 l 58 527 m 379 379 q 292 323 326 348 q 238 274 258 298 q 210 229 218 251 q 203 182 203 206 q 221 129 203 145 q 275 114 239 114 q 333 134 306 114 q 379 183 359 155 l 379 379 m 232 1036 l 384 1036 l 518 836 l 390 836 l 308 959 l 226 836 l 99 836 l 232 1036 "},"Ä":{"x_min":47.25,"x_max":569.5625,"ha":617,"o":"m 47 -101 q 66 -106 55 -105 q 87 -108 76 -108 q 147 -85 125 -108 q 184 1 169 -63 q 209 187 198 66 q 232 503 219 307 l 102 503 l 102 620 l 242 620 q 271 807 248 731 q 327 930 293 883 q 407 996 362 976 q 504 1017 452 1017 q 536 1014 520 1017 q 569 1010 552 1012 l 569 879 q 498 898 537 898 q 457 886 476 898 q 423 843 437 874 q 400 757 408 811 q 389 620 391 703 l 530 620 l 530 503 l 383 503 q 358 189 373 326 q 313 -42 342 51 q 233 -186 283 -137 q 101 -236 183 -236 q 47 -229 75 -236 l 47 -101 "},"a":{"x_min":47,"x_max":545,"ha":617,"o":"m 58 527 q 131 701 64 641 q 308 761 198 761 q 475 711 416 761 q 535 558 535 661 l 535 79 q 538 40 535 61 q 545 0 542 19 l 395 0 q 391 29 393 15 q 387 58 388 44 q 302 4 342 22 q 205 -14 262 -14 q 86 33 126 -14 q 47 154 47 81 q 67 263 47 215 q 128 352 87 312 q 233 426 170 392 q 379 492 295 460 l 379 537 q 302 633 379 633 q 233 604 250 633 q 214 527 216 576 l 58 527 m 379 379 q 292 323 326 348 q 238 274 258 298 q 210 229 218 251 q 203 182 203 206 q 221 129 203 145 q 275 114 239 114 q 333 134 306 114 q 379 183 359 155 l 379 379 "},"\u0016":{"x_min":69.78125,"x_max":877.78125,"ha":925,"o":"m 711 245 l 711 429 l 708 429 l 621 245 l 711 245 m 711 139 l 513 139 l 513 249 l 692 601 l 825 601 l 825 245 l 877 245 l 877 139 l 825 139 l 825 0 l 711 0 l 711 139 m 102 -14 l 672 1017 l 798 1017 l 229 -14 l 102 -14 m 142 871 l 69 871 l 69 937 q 144 972 110 952 q 207 1015 179 992 l 275 1015 l 275 406 l 142 406 l 142 871 "},"—":{"x_min":67,"x_max":550,"ha":617,"o":"m 394 510 q 371 604 394 576 q 308 633 349 633 q 245 604 267 633 q 223 510 223 576 l 223 236 q 245 142 223 170 q 308 114 267 114 q 371 142 349 114 q 394 236 394 170 l 394 510 m 67 483 q 79 595 67 544 q 121 683 91 647 q 196 740 150 720 q 308 761 241 761 q 420 740 375 761 q 495 683 466 720 q 537 595 525 647 q 550 483 550 544 l 550 263 q 537 151 550 202 q 495 63 525 99 q 420 6 466 26 q 308 -14 375 -14 q 196 6 241 -14 q 121 63 150 26 q 79 151 91 99 q 67 263 67 202 l 67 483 m 325 836 l 210 836 l 319 1036 l 507 1036 l 325 836 "},"N":{"x_min":83,"x_max":612,"ha":695,"o":"m 83 0 l 83 1003 l 243 1003 l 453 429 l 456 429 l 456 1003 l 612 1003 l 612 0 l 461 0 l 242 626 l 239 626 l 239 0 l 83 0 "},"=":{"x_min":65.28125,"x_max":768.109375,"ha":833,"o":"m 768 428 l 65 428 l 65 564 l 768 564 l 768 428 m 768 139 l 65 139 l 65 275 l 768 275 l 768 139 "},"ú":{"x_min":79,"x_max":229,"ha":308,"o":"m 229 1003 l 229 853 l 79 853 l 79 1003 l 229 1003 "},"2":{"x_min":61,"x_max":556,"ha":617,"o":"m 61 0 l 61 134 q 203 344 141 251 q 307 512 265 437 q 370 649 348 587 q 392 767 392 711 q 371 853 392 826 q 314 881 350 881 q 251 851 272 881 q 231 776 231 822 l 231 708 l 67 708 l 67 755 q 84 858 67 811 q 134 941 101 905 q 214 996 167 976 q 322 1017 262 1017 q 418 998 375 1017 q 492 949 461 980 q 539 878 522 918 q 556 794 556 839 q 544 678 556 735 q 497 550 532 622 q 400 380 462 478 q 236 142 337 283 l 541 142 l 541 0 l 61 0 "},"ü":{"x_min":-12.84375,"x_max":297,"ha":308,"o":"m 10 -226 q 54 -242 27 -234 q 101 -250 81 -250 q 160 -233 137 -250 q 183 -193 183 -216 q 170 -161 183 -172 q 139 -145 158 -150 q 101 -144 121 -141 q 67 -152 81 -147 l 37 -127 l 131 0 l 198 0 l 141 -83 q 155 -81 148 -81 q 170 -80 163 -80 q 216 -88 194 -81 q 256 -108 238 -95 q 285 -140 274 -120 q 297 -186 297 -159 q 282 -245 297 -219 q 244 -290 267 -272 q 189 -318 220 -308 q 124 -328 158 -328 q 38 -315 74 -328 q -12 -295 2 -302 l 10 -226 "},"¯":{"x_min":38.546875,"x_max":656.453125,"ha":695,"o":"m 434 808 q 406 852 427 837 q 347 867 386 867 q 274 839 294 867 q 255 755 255 812 l 255 357 l 257 357 l 434 808 m 274 167 q 348 136 291 136 q 420 163 400 136 q 440 247 440 190 l 440 589 l 437 589 l 274 167 m 152 -166 l 38 -166 l 134 77 q 95 152 108 111 q 83 243 83 194 l 83 759 q 99 859 83 812 q 147 941 115 907 q 229 996 180 976 q 347 1017 279 1017 q 490 983 432 1017 l 543 1117 l 656 1117 l 574 905 q 602 837 593 875 q 612 759 612 800 l 612 243 q 595 143 612 190 q 547 61 579 95 q 465 6 514 26 q 347 -14 415 -14 q 222 9 276 -14 l 152 -166 "},"Z":{"x_min":61,"x_max":555,"ha":616,"o":"m 99 853 l 99 1003 l 555 1003 l 555 839 l 238 150 l 555 150 l 555 0 l 61 0 l 61 163 l 381 853 l 99 853 "},"u":{"x_min":75,"x_max":542,"ha":617,"o":"m 542 747 l 542 0 l 394 0 l 394 75 q 349 37 369 54 q 309 9 330 20 q 263 -7 288 -1 q 205 -14 238 -14 q 108 27 142 -14 q 75 142 75 69 l 75 747 l 231 747 l 231 168 q 246 127 231 140 q 286 114 261 114 q 334 127 311 114 q 386 161 358 141 l 386 747 l 542 747 "},"˜":{"x_min":67,"x_max":550,"ha":617,"o":"m 394 510 q 371 604 394 576 q 308 633 349 633 q 245 604 267 633 q 223 510 223 576 l 223 236 q 245 142 223 170 q 308 114 267 114 q 371 142 349 114 q 394 236 394 170 l 394 510 m 67 483 q 79 595 67 544 q 121 683 91 647 q 196 740 150 720 q 308 761 241 761 q 420 740 375 761 q 495 683 466 720 q 537 595 525 647 q 550 483 550 544 l 550 263 q 537 151 550 202 q 495 63 525 99 q 420 6 466 26 q 308 -14 375 -14 q 196 6 241 -14 q 121 63 150 26 q 79 151 91 99 q 67 263 67 202 l 67 483 m 110 1036 l 297 1036 l 407 836 l 291 836 l 110 1036 "},"Ó":{"x_min":93.4375,"x_max":520,"ha":617,"o":"m 520 839 l 424 667 l 350 667 l 418 839 l 356 839 l 356 1003 l 520 1003 l 520 839 m 263 839 l 167 667 l 93 667 l 161 839 l 99 839 l 99 1003 l 263 1003 l 263 839 "},"k":{"x_min":75,"x_max":589.359375,"ha":617,"o":"m 408 511 l 589 0 l 432 0 l 307 370 l 304 370 l 231 261 l 231 0 l 75 0 l 75 1003 l 231 1003 l 231 483 l 233 483 l 404 747 l 571 747 l 408 511 "},"Ù":{"x_min":13.65625,"x_max":602.359375,"ha":617,"o":"m 394 0 l 222 0 l 222 416 l 13 1003 l 188 1003 l 309 620 l 312 620 l 427 1003 l 602 1003 l 394 416 l 394 0 m 342 1072 l 342 1222 l 492 1222 l 492 1072 l 342 1072 m 273 1222 l 273 1072 l 123 1072 l 123 1222 l 273 1222 "},"Ÿ":{"x_min":75,"x_max":542,"ha":617,"o":"m 542 747 l 542 0 l 394 0 l 394 75 q 349 37 369 54 q 309 9 330 20 q 263 -7 288 -1 q 205 -14 238 -14 q 108 27 142 -14 q 75 142 75 69 l 75 747 l 231 747 l 231 168 q 246 127 231 140 q 286 114 261 114 q 334 127 311 114 q 386 161 358 141 l 386 747 l 542 747 m 342 853 l 342 1003 l 492 1003 l 492 853 l 342 853 m 273 1003 l 273 853 l 123 853 l 123 1003 l 273 1003 "},"€":{"x_min":16.671875,"x_max":600.046875,"ha":617,"o":"m 238 372 l 377 372 l 309 802 l 306 802 l 238 372 m 183 0 l 16 0 l 201 1003 l 415 1003 l 600 0 l 433 0 l 402 222 l 213 222 l 183 0 m 342 1072 l 342 1222 l 492 1222 l 492 1072 l 342 1072 m 273 1222 l 273 1072 l 123 1072 l 123 1222 l 273 1222 "},"¢":{"x_min":53,"x_max":564,"ha":617,"o":"m 332 645 q 309 647 325 647 q 237 618 265 647 q 209 524 209 590 l 209 249 q 211 226 209 237 q 216 205 214 215 l 219 205 l 332 645 m 412 505 l 412 524 q 391 606 412 577 l 265 139 q 309 128 282 128 q 381 156 354 128 q 408 250 408 184 l 408 297 l 564 297 l 564 278 q 550 165 564 216 q 507 77 537 114 q 429 20 477 40 q 309 0 380 0 q 250 6 273 0 l 204 -160 l 100 -160 l 155 40 q 76 136 100 75 q 53 278 53 197 l 53 497 q 66 609 53 558 q 111 697 80 661 q 190 754 141 734 q 309 775 239 775 q 332 774 322 775 q 354 772 343 773 l 402 949 l 505 949 l 448 741 q 530 647 505 708 q 557 505 555 587 l 412 505 "},"ß":{"x_min":-5.6875,"x_max":541,"ha":617,"o":"m 86 619 l -5 619 l -5 747 l 86 747 l 86 840 q 131 974 86 932 q 260 1017 176 1017 l 337 1017 l 337 889 l 293 889 q 253 877 265 889 q 242 838 242 866 l 242 747 l 330 747 l 330 619 l 242 619 l 242 0 l 86 0 l 86 619 m 385 0 l 385 1003 l 541 1003 l 541 0 l 385 0 "},"é":{"x_min":83,"x_max":563.359375,"ha":617,"o":"m 83 0 l 83 1003 l 543 1003 l 543 853 l 255 853 l 255 594 l 477 594 l 477 444 l 255 444 l 255 150 l 563 150 l 563 0 l 83 0 m 127 1255 l 314 1255 l 424 1055 l 308 1055 l 127 1255 "},"s":{"x_min":37.640625,"x_max":493,"ha":540,"o":"m 358 539 q 269 633 341 633 q 219 617 238 633 q 201 573 201 602 q 222 519 201 544 q 276 471 244 495 q 347 419 309 446 q 417 360 384 392 q 471 285 449 327 q 493 187 493 242 q 477 99 493 137 q 431 36 461 62 q 362 -1 402 10 q 275 -14 322 -14 q 114 40 172 -14 q 37 194 55 95 l 173 232 q 202 149 180 184 q 276 114 223 114 q 326 130 307 114 q 346 179 346 147 q 324 238 346 211 q 270 290 302 265 q 200 341 237 315 q 129 400 162 368 q 75 470 97 431 q 54 561 54 509 q 69 642 54 605 q 114 705 85 679 q 181 746 142 731 q 262 761 219 761 q 412 705 353 761 q 490 562 471 649 l 358 539 "},"B":{"x_min":83,"x_max":625,"ha":694,"o":"m 255 142 l 327 142 q 425 180 397 142 q 453 296 453 219 q 420 411 453 373 q 310 450 388 450 l 255 450 l 255 142 m 255 592 l 317 592 q 400 624 366 592 q 434 719 434 657 q 320 861 434 861 l 255 861 l 255 592 m 83 1003 l 338 1003 q 542 934 478 1003 q 606 737 606 866 q 599 673 606 705 q 577 613 592 641 q 540 562 562 584 q 486 527 518 540 q 588 443 552 498 q 625 290 625 387 q 610 175 625 227 q 563 83 595 122 q 480 22 531 44 q 355 0 429 0 l 83 0 l 83 1003 "},"…":{"x_min":83,"x_max":612,"ha":695,"o":"m 83 759 q 99 859 83 812 q 147 941 115 907 q 229 996 180 976 q 347 1017 279 1017 q 465 996 415 1017 q 547 941 514 976 q 595 859 579 907 q 612 759 612 812 l 612 243 q 595 143 612 190 q 547 61 579 95 q 465 6 514 26 q 347 -14 415 -14 q 229 6 279 -14 q 147 61 180 26 q 99 143 115 95 q 83 243 83 190 l 83 759 m 255 247 q 274 163 255 190 q 347 136 294 136 q 420 163 400 136 q 440 247 440 190 l 440 755 q 420 839 440 812 q 347 867 400 867 q 274 839 294 867 q 255 755 255 812 l 255 247 m 381 1072 l 381 1222 l 531 1222 l 531 1072 l 381 1072 m 312 1222 l 312 1072 l 162 1072 l 162 1222 l 312 1222 "},"?":{"x_min":44.703125,"x_max":496,"ha":540,"o":"m 190 294 l 190 411 q 212 542 190 483 q 262 651 234 601 q 312 744 290 701 q 335 826 335 787 q 319 870 335 851 q 276 889 303 889 q 238 879 254 889 q 210 854 222 869 q 190 820 198 839 q 178 783 182 801 l 44 833 q 136 971 76 925 q 296 1017 196 1017 q 371 1003 335 1017 q 434 964 407 989 q 479 905 462 939 q 496 830 496 870 q 488 761 496 791 q 468 707 480 732 q 441 659 456 682 q 409 615 426 637 q 377 569 392 593 q 350 516 362 545 q 330 451 338 487 q 323 369 323 415 l 323 294 l 190 294 m 172 0 l 172 164 l 336 164 l 336 0 l 172 0 "},"H":{"x_min":83,"x_max":612,"ha":695,"o":"m 83 0 l 83 1003 l 255 1003 l 255 594 l 440 594 l 440 1003 l 612 1003 l 612 0 l 440 0 l 440 444 l 255 444 l 255 0 l 83 0 "},"î":{"x_min":83,"x_max":612,"ha":695,"o":"m 83 759 q 99 859 83 812 q 147 941 115 907 q 229 996 180 976 q 347 1017 279 1017 q 465 996 415 1017 q 547 941 514 976 q 595 859 579 907 q 612 759 612 812 l 612 243 q 595 143 612 190 q 547 61 579 95 q 465 6 514 26 q 347 -14 415 -14 q 229 6 279 -14 q 147 61 180 26 q 99 143 115 95 q 83 243 83 190 l 83 759 m 255 247 q 274 163 255 190 q 347 136 294 136 q 420 163 400 136 q 440 247 440 190 l 440 755 q 420 839 440 812 q 347 867 400 867 q 274 839 294 867 q 255 755 255 812 l 255 247 m 364 1055 l 249 1055 l 358 1255 l 546 1255 l 364 1055 "},"c":{"x_min":67,"x_max":550,"ha":617,"o":"m 394 491 l 394 510 q 371 604 394 576 q 308 633 349 633 q 245 604 267 633 q 223 510 223 576 l 223 236 q 245 142 223 170 q 308 114 267 114 q 371 142 349 114 q 394 236 394 170 l 394 283 l 550 283 l 550 264 q 537 151 550 202 q 495 63 525 100 q 420 6 466 26 q 308 -14 375 -14 q 196 6 241 -14 q 121 63 150 26 q 79 151 91 99 q 67 263 67 202 l 67 483 q 79 595 67 544 q 121 683 91 647 q 196 740 150 720 q 308 761 241 761 q 419 741 373 761 q 493 686 465 722 q 535 601 522 651 q 550 491 548 551 l 394 491 "},"•":{"x_min":-31,"x_max":338,"ha":308,"o":"m 76 0 l 76 747 l 232 747 l 232 0 l 76 0 m 188 853 l 188 1003 l 338 1003 l 338 853 l 188 853 m 119 1003 l 119 853 l -31 853 l -31 1003 l 119 1003 "},"¥":{"x_min":96,"x_max":597,"ha":694,"o":"m 96 501 q 115 599 96 553 q 168 678 134 644 q 248 731 202 712 q 345 751 294 751 q 443 731 398 751 q 523 678 488 712 q 577 599 558 644 q 597 501 597 553 q 577 404 597 449 q 523 323 558 358 q 443 269 488 288 q 345 250 398 250 q 248 269 294 250 q 168 323 202 288 q 115 404 134 358 q 96 501 96 449 "},"(":{"x_min":45,"x_max":341.890625,"ha":386,"o":"m 341 1017 q 220 749 262 894 q 178 448 178 604 q 220 148 178 293 q 341 -119 262 3 l 208 -119 q 88 147 132 0 q 45 448 45 294 q 88 750 45 603 q 208 1017 132 897 l 341 1017 "},"U":{"x_min":83,"x_max":612,"ha":695,"o":"m 83 1003 l 255 1003 l 255 245 q 347 136 255 136 q 440 245 440 136 l 440 1003 l 612 1003 l 612 252 q 541 54 612 122 q 347 -14 471 -14 q 153 54 223 -14 q 83 252 83 122 l 83 1003 "},"Ñ":{"x_min":0,"x_max":1389,"ha":1389,"o":"m 0 324 l 0 424 l 1389 424 l 1389 324 l 0 324 "},"F":{"x_min":83,"x_max":563.359375,"ha":617,"o":"m 83 0 l 83 1003 l 563 1003 l 563 853 l 255 853 l 255 594 l 485 594 l 485 444 l 255 444 l 255 0 l 83 0 "},":":{"x_min":72,"x_max":236,"ha":308,"o":"m 72 0 l 72 164 l 236 164 l 236 0 l 72 0 m 72 386 l 72 550 l 236 550 l 236 386 l 72 386 "},"":{"x_min":16.671875,"x_max":600.046875,"ha":617,"o":"m 238 372 l 377 372 l 309 802 l 306 802 l 238 372 m 183 0 l 16 0 l 201 1003 l 415 1003 l 600 0 l 433 0 l 402 222 l 213 222 l 183 0 m 167 1196 q 178 1251 167 1225 q 208 1296 189 1276 q 253 1326 227 1315 q 308 1338 278 1338 q 362 1326 337 1338 q 407 1296 388 1315 q 437 1251 426 1276 q 449 1196 449 1225 q 437 1141 449 1167 q 407 1096 426 1116 q 362 1066 388 1077 q 308 1055 337 1055 q 253 1066 278 1055 q 208 1096 227 1077 q 178 1141 189 1116 q 167 1196 167 1167 m 236 1196 q 256 1144 236 1165 q 308 1124 277 1124 q 359 1144 338 1124 q 380 1196 380 1165 q 359 1248 380 1227 q 308 1269 338 1269 q 256 1248 277 1269 q 236 1196 236 1227 "},"*":{"x_min":57.9375,"x_max":558.0625,"ha":617,"o":"m 558 772 q 453 762 505 769 q 348 749 401 755 q 422 671 384 708 q 502 600 460 633 l 392 523 q 352 621 374 573 q 308 718 330 669 q 263 621 285 669 q 223 523 241 573 l 113 600 q 193 671 155 633 q 267 749 231 708 q 162 762 214 755 q 57 772 110 769 l 99 896 q 276 803 182 846 q 262 904 271 854 q 242 1003 253 954 l 373 1003 q 353 904 362 954 q 340 803 344 854 q 516 896 433 846 l 558 772 "},"†":{"x_min":83,"x_max":612,"ha":695,"o":"m 83 1003 l 255 1003 l 255 245 q 347 136 255 136 q 440 245 440 136 l 440 1003 l 612 1003 l 612 252 q 541 54 612 122 q 347 -14 471 -14 q 153 54 223 -14 q 83 252 83 122 l 83 1003 m 381 1072 l 381 1222 l 531 1222 l 531 1072 l 381 1072 m 312 1222 l 312 1072 l 162 1072 l 162 1222 l 312 1222 "},"V":{"x_min":12.5,"x_max":604.21875,"ha":617,"o":"m 434 1003 l 604 1003 l 394 0 l 222 0 l 12 1003 l 181 1003 l 306 307 l 309 307 l 434 1003 "},"å":{"x_min":16.671875,"x_max":600.046875,"ha":617,"o":"m 238 372 l 377 372 l 309 802 l 306 802 l 238 372 m 183 0 l 16 0 l 201 1003 l 415 1003 l 600 0 l 433 0 l 402 222 l 213 222 l 183 0 m 232 1255 l 384 1255 l 518 1055 l 390 1055 l 308 1178 l 226 1055 l 99 1055 l 232 1255 "}," ":{"x_min":91.59375,"x_max":603.40625,"ha":695,"o":"m 603 625 l 371 683 l 433 448 q 400 236 412 378 q 374 -110 387 94 l 321 -110 q 294 236 307 94 q 261 448 282 378 l 323 683 l 91 625 l 91 797 l 318 739 l 263 1017 l 431 1017 l 377 739 l 603 797 l 603 625 "},"0":{"x_min":64,"x_max":553,"ha":617,"o":"m 389 785 q 308 881 389 881 q 228 785 228 881 l 228 217 q 308 122 228 122 q 389 217 389 122 l 389 785 m 64 741 q 120 951 64 885 q 308 1017 177 1017 q 496 951 439 1017 q 553 741 553 885 l 553 261 q 496 52 553 118 q 308 -14 439 -14 q 120 52 177 -14 q 64 261 64 118 l 64 741 "},"”":{"x_min":-55,"x_max":364,"ha":308,"o":"m 76 0 l 76 747 l 232 747 l 232 0 l 76 0 m 78 1036 l 230 1036 l 364 836 l 236 836 l 154 959 l 72 836 l -55 836 l 78 1036 "},"¾":{"x_min":47,"x_max":860,"ha":927,"o":"m 378 378 q 291 323 325 348 q 237 274 257 298 q 210 229 218 251 q 203 181 203 206 q 221 129 203 145 q 275 114 239 114 q 332 134 307 114 q 378 183 358 155 l 378 378 m 704 472 l 704 510 q 681 604 704 576 q 618 633 659 633 q 555 604 576 633 q 534 510 534 576 l 534 472 l 704 472 m 534 344 l 534 235 q 555 142 534 170 q 618 114 576 114 q 681 142 659 114 q 704 236 704 170 l 704 252 l 860 252 q 845 144 858 193 q 803 60 832 95 q 728 5 773 24 q 618 -14 683 -14 q 502 12 548 -14 q 429 83 455 38 q 361 30 391 49 q 305 1 330 11 q 259 -11 280 -8 q 222 -14 238 -14 q 88 33 130 -14 q 47 154 47 81 q 67 263 47 215 q 129 352 87 312 q 232 426 170 392 q 378 492 294 460 l 378 537 q 302 633 378 633 q 233 604 250 633 q 214 527 216 576 l 58 527 q 128 701 64 641 q 285 761 192 761 q 465 691 406 761 q 535 744 493 727 q 630 761 577 761 q 736 740 693 761 q 807 683 779 720 q 847 595 834 647 q 860 483 860 544 l 860 344 l 534 344 "},"@":{"x_min":56,"x_max":1055,"ha":1111,"o":"m 512 324 q 581 343 549 324 q 635 393 613 362 q 670 461 658 423 q 683 533 683 498 q 653 619 683 584 q 576 654 623 654 q 506 634 538 654 q 451 585 474 615 q 416 518 428 555 q 404 447 404 482 q 433 359 404 394 q 512 324 463 324 m 748 761 l 861 761 l 773 403 q 767 377 770 391 q 764 349 764 363 q 768 323 764 334 q 786 312 772 312 q 844 331 815 312 q 896 383 873 349 q 933 464 919 417 q 947 566 947 510 q 917 713 947 649 q 838 821 888 777 q 721 886 788 864 q 576 909 654 909 q 414 877 487 909 q 289 791 341 846 q 209 661 237 736 q 181 498 181 586 q 211 335 181 409 q 297 207 242 260 q 428 123 353 153 q 593 94 504 94 q 756 124 680 94 q 888 210 833 154 l 1003 210 q 824 43 933 101 q 584 -14 715 -14 q 378 22 475 -14 q 210 127 282 59 q 96 290 137 195 q 56 501 56 384 q 96 708 56 614 q 208 871 137 803 q 374 978 279 940 q 577 1017 469 1017 q 756 987 670 1017 q 909 901 842 957 q 1015 768 975 846 q 1055 596 1055 690 q 1015 414 1055 489 q 921 291 975 339 q 807 221 866 243 q 712 199 749 199 q 657 217 680 199 q 633 274 635 235 l 630 275 q 562 221 602 243 q 480 199 521 199 q 396 217 435 199 q 328 266 358 235 q 282 339 299 297 q 265 429 265 382 q 286 557 265 494 q 346 670 308 620 q 440 749 385 719 q 563 779 495 779 q 656 756 615 779 q 726 688 698 734 l 748 761 "},"ö":{"x_min":-55,"x_max":364,"ha":308,"o":"m 78 1036 l 230 1036 l 364 836 l 236 836 l 154 959 l 72 836 l -55 836 l 78 1036 "},"i":{"x_min":76,"x_max":232,"ha":308,"o":"m 76 0 l 76 747 l 232 747 l 232 0 l 76 0 m 76 861 l 76 1003 l 232 1003 l 232 861 l 76 861 "},"Õ":{"x_min":66.4375,"x_max":236,"ha":308,"o":"m 236 839 l 140 667 l 66 667 l 134 839 l 72 839 l 72 1003 l 236 1003 l 236 839 "},"þ":{"x_min":39,"x_max":372.453125,"ha":308,"o":"m 337 12 q 279 -12 311 3 q 219 -49 247 -28 q 172 -98 191 -70 q 153 -160 153 -126 q 173 -209 153 -192 q 221 -226 193 -226 q 287 -207 253 -226 q 346 -170 321 -188 l 372 -220 q 279 -278 328 -252 q 175 -304 230 -304 q 78 -271 118 -304 q 39 -176 39 -238 q 70 -85 39 -121 q 149 -25 102 -48 q 247 10 196 -2 q 337 29 298 22 l 337 12 "},"]":{"x_min":39.09375,"x_max":336,"ha":386,"o":"m 39 1003 l 336 1003 l 336 -106 l 39 -106 l 39 -39 l 203 -39 l 203 936 l 39 936 l 39 1003 "},"m":{"x_min":75,"x_max":851,"ha":927,"o":"m 385 0 l 385 578 q 369 619 385 606 q 330 633 354 633 q 282 619 305 633 q 231 585 258 605 l 231 0 l 75 0 l 75 747 l 223 747 l 222 671 q 266 709 247 692 q 305 737 286 726 q 346 754 325 748 q 395 761 367 761 q 479 739 453 761 q 531 671 506 717 q 581 716 558 699 q 624 743 604 733 q 664 757 645 754 q 705 761 684 761 q 814 719 778 761 q 851 604 851 677 l 851 0 l 695 0 l 695 578 q 679 619 695 606 q 639 633 663 633 q 590 619 614 633 q 541 585 567 605 l 541 0 l 385 0 "},"\u0004":{"x_min":-21.21875,"x_max":329.21875,"ha":308,"o":"m 232 0 l 76 0 l 76 462 l -21 412 l -21 515 l 76 565 l 76 1003 l 232 1003 l 232 644 l 329 694 l 329 591 l 232 541 l 232 0 "},"\u001b":{"x_min":86,"x_max":222,"ha":308,"o":"m 222 -14 l 86 -14 l 86 411 l 222 411 l 222 -14 m 222 592 l 86 592 l 86 1017 l 222 1017 l 222 592 "},"8":{"x_min":64,"x_max":553,"ha":617,"o":"m 64 277 q 84 432 64 369 q 168 535 104 494 q 100 622 122 568 q 78 735 78 676 q 140 948 78 880 q 308 1017 202 1017 q 477 948 415 1017 q 539 735 539 880 q 516 622 539 676 q 448 535 494 568 q 532 432 512 494 q 553 277 553 369 q 491 60 553 134 q 308 -14 430 -14 q 125 60 186 -14 q 64 277 64 134 m 308 122 q 377 165 358 122 q 397 289 397 209 q 377 412 397 368 q 308 456 358 456 q 239 412 258 456 q 220 289 220 368 q 239 165 220 209 q 308 122 258 122 m 308 606 q 365 637 348 606 q 383 743 383 669 q 365 849 383 817 q 308 881 348 881 q 251 849 268 881 q 234 743 234 817 q 251 637 234 669 q 308 606 268 606 "},"R":{"x_min":83,"x_max":642,"ha":695,"o":"m 255 553 l 316 553 q 415 585 386 553 q 445 707 445 618 q 438 781 445 751 q 415 829 431 811 q 375 854 400 847 q 316 861 351 861 l 255 861 l 255 553 m 255 0 l 83 0 l 83 1003 l 324 1003 q 452 987 397 1003 q 543 935 507 971 q 598 843 579 900 q 617 707 617 787 q 606 603 617 647 q 578 529 596 559 q 539 482 561 500 q 495 454 518 463 l 642 0 l 466 0 l 344 415 q 303 411 327 412 q 255 411 278 411 l 255 0 "},"á":{"x_min":61,"x_max":247,"ha":308,"o":"m 61 351 q 87 416 61 389 q 154 444 113 444 q 219 416 192 444 q 247 351 247 389 q 219 284 247 310 q 154 258 192 258 q 87 284 113 258 q 61 351 61 310 "},"o":{"x_min":67,"x_max":550,"ha":617,"o":"m 394 510 q 371 604 394 576 q 308 633 349 633 q 245 604 267 633 q 223 510 223 576 l 223 236 q 245 142 223 170 q 308 114 267 114 q 371 142 349 114 q 394 236 394 170 l 394 510 m 67 483 q 79 595 67 544 q 121 683 91 647 q 196 740 150 720 q 308 761 241 761 q 420 740 375 761 q 495 683 466 720 q 537 595 525 647 q 550 483 550 544 l 550 263 q 537 151 550 202 q 495 63 525 99 q 420 6 466 26 q 308 -14 375 -14 q 196 6 241 -14 q 121 63 150 26 q 79 151 91 99 q 67 263 67 202 l 67 483 "},"5":{"x_min":69,"x_max":550,"ha":617,"o":"m 225 290 l 225 209 q 245 145 225 169 q 301 122 266 122 q 363 149 341 122 q 386 244 386 176 l 386 472 q 364 542 386 520 q 313 564 342 564 q 252 541 273 564 q 220 487 231 519 l 87 487 q 92 600 90 545 q 95 714 94 654 q 98 843 97 773 q 100 1003 100 914 l 518 1003 l 512 861 l 242 861 l 232 644 l 234 641 q 296 690 266 680 q 366 700 326 700 q 508 631 466 700 q 550 436 550 562 l 550 297 q 495 62 550 138 q 316 -14 441 -14 q 219 -1 265 -14 q 141 38 174 10 q 88 108 107 65 q 69 213 69 151 l 69 290 l 225 290 "},"õ":{"x_min":76,"x_max":232,"ha":308,"o":"m 76 0 l 76 747 l 232 747 l 232 0 l 76 0 "},"7":{"x_min":78,"x_max":531,"ha":617,"o":"m 78 861 l 78 1003 l 531 1003 l 531 905 l 326 0 l 164 0 l 365 861 l 78 861 "},"K":{"x_min":75,"x_max":626.203125,"ha":617,"o":"m 75 0 l 75 1003 l 247 1003 l 247 632 l 249 632 l 430 1003 l 602 1003 l 416 629 l 626 0 l 451 0 l 310 466 l 308 466 l 247 355 l 247 0 l 75 0 "},"¨":{"x_min":28,"x_max":1083,"ha":1111,"o":"m 464 214 l 350 214 l 350 790 l 568 790 q 734 751 676 790 q 792 619 792 713 q 780 552 792 580 q 750 506 769 524 q 706 478 732 488 q 652 466 680 468 l 791 214 l 665 214 l 536 460 l 464 460 l 464 214 m 464 549 l 562 549 q 650 569 625 549 q 675 629 675 589 q 647 685 675 669 q 557 701 619 701 l 464 701 l 464 549 m 555 -14 q 355 22 451 -14 q 186 125 259 58 q 71 288 114 193 q 28 501 28 383 q 71 713 28 618 q 186 875 114 808 q 355 980 259 943 q 555 1017 451 1017 q 755 980 659 1017 q 924 875 851 943 q 1039 713 996 808 q 1083 501 1083 618 q 1039 288 1083 383 q 924 125 996 193 q 755 22 851 58 q 555 -14 659 -14 m 947 501 q 916 665 947 590 q 832 794 885 740 q 708 879 779 849 q 555 909 637 909 q 402 879 473 909 q 277 794 330 849 q 194 665 225 740 q 164 501 164 590 q 194 337 164 412 q 277 208 225 262 q 402 123 330 153 q 555 94 473 94 q 708 123 637 94 q 832 208 779 153 q 916 337 885 262 q 947 501 947 412 "},",":{"x_min":66.4375,"x_max":236,"ha":308,"o":"m 236 0 l 140 -172 l 66 -172 l 134 0 l 72 0 l 72 164 l 236 164 l 236 0 "},"d":{"x_min":67,"x_max":542,"ha":617,"o":"m 394 0 l 394 77 l 392 77 q 318 7 353 29 q 226 -14 284 -14 q 109 38 152 -14 q 67 194 67 91 l 67 552 q 109 708 67 655 q 226 761 152 761 q 270 756 250 761 q 308 740 290 751 q 345 716 326 730 q 386 683 363 702 l 386 1003 l 542 1003 l 542 0 l 394 0 m 386 594 q 341 621 362 610 q 297 633 321 633 q 268 628 282 633 q 244 609 254 623 q 228 572 234 595 q 223 512 223 549 l 223 234 q 228 174 223 197 q 244 137 234 151 q 268 118 254 123 q 297 114 282 114 q 341 125 321 114 q 386 152 362 136 l 386 594 "},"Ô":{"x_min":72,"x_max":241.5625,"ha":308,"o":"m 72 844 l 167 1017 l 241 1017 l 173 844 l 236 845 l 236 681 l 72 681 l 72 844 "},"E":{"x_min":83,"x_max":563.359375,"ha":617,"o":"m 83 0 l 83 1003 l 543 1003 l 543 853 l 255 853 l 255 594 l 477 594 l 477 444 l 255 444 l 255 150 l 563 150 l 563 0 l 83 0 "},"Y":{"x_min":13.65625,"x_max":602.359375,"ha":617,"o":"m 394 0 l 222 0 l 222 416 l 13 1003 l 188 1003 l 309 620 l 312 620 l 427 1003 l 602 1003 l 394 416 l 394 0 "},"\"":{"x_min":56,"x_max":408,"ha":464,"o":"m 56 1003 l 187 1003 l 187 622 l 56 622 l 56 1003 m 277 1003 l 408 1003 l 408 622 l 277 622 l 277 1003 "},"‹":{"x_min":47,"x_max":545,"ha":617,"o":"m 58 527 q 131 701 64 641 q 308 761 198 761 q 475 711 416 761 q 535 558 535 661 l 535 79 q 538 40 535 61 q 545 0 542 19 l 395 0 q 391 29 393 15 q 387 58 388 44 q 302 4 342 22 q 205 -14 262 -14 q 86 33 126 -14 q 47 154 47 81 q 67 263 47 215 q 128 352 87 312 q 233 426 170 392 q 379 492 295 460 l 379 537 q 302 633 379 633 q 233 604 250 633 q 214 527 216 576 l 58 527 m 379 379 q 292 323 326 348 q 238 274 258 298 q 210 229 218 251 q 203 182 203 206 q 221 129 203 145 q 275 114 239 114 q 333 134 306 114 q 379 183 359 155 l 379 379 m 535 1018 q 519 958 529 988 q 493 906 509 929 q 451 868 476 883 q 391 854 426 854 q 344 862 366 854 q 301 881 322 870 q 260 900 280 892 q 218 908 240 908 q 173 892 186 908 q 159 847 161 877 l 82 847 q 97 906 87 876 q 123 958 107 935 q 165 996 140 981 q 225 1011 190 1011 q 272 1002 250 1011 q 315 984 294 994 q 356 965 336 974 q 398 956 376 956 q 443 972 430 956 q 457 1018 455 987 l 535 1018 "},"ê":{"x_min":95,"x_max":392,"ha":386,"o":"m 107 0 l 107 1003 l 279 1003 l 279 0 l 107 0 m 210 1055 l 95 1055 l 204 1255 l 392 1255 l 210 1055 "},"Ï":{"x_min":66,"x_max":860,"ha":927,"o":"m 386 510 q 365 604 386 576 q 308 633 344 633 q 244 604 266 633 q 222 510 222 576 l 222 236 q 244 142 222 170 q 308 114 266 114 q 365 142 344 114 q 386 236 386 170 l 386 510 m 704 472 l 704 510 q 681 604 704 576 q 618 633 659 633 q 559 604 576 633 q 542 510 542 576 l 542 472 l 704 472 m 542 344 l 542 235 q 559 142 542 170 q 618 114 576 114 q 681 142 659 114 q 704 236 704 170 l 704 252 l 860 252 q 845 144 858 193 q 805 60 832 95 q 735 5 778 24 q 634 -14 693 -14 q 530 8 570 -14 q 466 72 490 31 q 403 8 444 31 q 291 -14 362 -14 q 188 6 231 -14 q 118 63 145 26 q 78 151 91 99 q 66 263 66 202 l 66 483 q 78 595 66 544 q 118 683 91 647 q 188 740 145 720 q 291 761 231 761 q 405 740 363 761 q 469 676 447 719 q 634 761 519 761 q 738 740 696 761 q 807 683 780 720 q 847 595 834 647 q 860 483 860 544 l 860 344 l 542 344 "},"„":{"x_min":83,"x_max":612,"ha":695,"o":"m 83 0 l 83 1003 l 243 1003 l 453 429 l 456 429 l 456 1003 l 612 1003 l 612 0 l 461 0 l 242 626 l 239 626 l 239 0 l 83 0 m 574 1237 q 558 1177 568 1207 q 532 1125 548 1148 q 490 1087 515 1102 q 430 1073 465 1073 q 383 1081 405 1073 q 340 1100 361 1089 q 299 1119 319 1111 q 257 1127 279 1127 q 212 1111 225 1127 q 198 1066 200 1096 l 121 1066 q 136 1125 126 1095 q 162 1177 146 1154 q 204 1215 179 1200 q 264 1230 229 1230 q 311 1221 289 1230 q 354 1203 333 1213 q 395 1184 375 1193 q 437 1175 415 1175 q 482 1191 469 1175 q 496 1237 494 1206 l 574 1237 "},"Â":{"x_min":65.28125,"x_max":768,"ha":833,"o":"m 632 428 l 65 428 l 65 564 l 768 564 l 768 137 l 632 137 l 632 428 "},"\u0006":{"x_min":37.640625,"x_max":493,"ha":540,"o":"m 358 539 q 269 633 341 633 q 219 617 238 633 q 201 573 201 602 q 222 519 201 544 q 276 471 244 495 q 347 419 309 446 q 417 360 384 392 q 471 285 449 327 q 493 187 493 242 q 477 99 493 137 q 431 36 461 62 q 362 -1 402 10 q 275 -14 322 -14 q 114 40 172 -14 q 37 194 55 95 l 173 232 q 202 149 180 184 q 276 114 223 114 q 326 130 307 114 q 346 179 346 147 q 324 238 346 211 q 270 290 302 265 q 200 341 237 315 q 129 400 162 368 q 75 470 97 431 q 54 561 54 509 q 69 642 54 605 q 114 705 85 679 q 181 746 142 731 q 262 761 219 761 q 412 705 353 761 q 490 562 471 649 l 358 539 m 347 836 l 195 836 l 62 1036 l 189 1036 l 271 912 l 353 1036 l 481 1036 l 347 836 "},"Í":{"x_min":83,"x_max":612,"ha":695,"o":"m 83 759 q 99 859 83 812 q 147 941 115 907 q 229 996 180 976 q 347 1017 279 1017 q 465 996 415 1017 q 547 941 514 976 q 595 859 579 907 q 612 759 612 812 l 612 243 q 595 143 612 190 q 547 61 579 95 q 465 6 514 26 q 347 -14 415 -14 q 229 6 279 -14 q 147 61 180 26 q 99 143 115 95 q 83 243 83 190 l 83 759 m 255 247 q 274 163 255 190 q 347 136 294 136 q 420 163 400 136 q 440 247 440 190 l 440 755 q 420 839 440 812 q 347 867 400 867 q 274 839 294 867 q 255 755 255 812 l 255 247 m 574 1237 q 558 1177 568 1207 q 532 1125 548 1148 q 490 1087 515 1102 q 430 1073 465 1073 q 383 1081 405 1073 q 340 1100 361 1089 q 299 1119 319 1111 q 257 1127 279 1127 q 212 1111 225 1127 q 198 1066 200 1096 l 121 1066 q 136 1125 126 1095 q 162 1177 146 1154 q 204 1215 179 1200 q 264 1230 229 1230 q 311 1221 289 1230 q 354 1203 333 1213 q 395 1184 375 1193 q 437 1175 415 1175 q 482 1191 469 1175 q 496 1237 494 1206 l 574 1237 "},"´":{"x_min":30.875,"x_max":586.125,"ha":617,"o":"m 580 533 l 412 533 l 375 422 l 580 422 l 580 305 l 375 305 l 375 0 l 242 0 l 242 305 l 36 305 l 36 422 l 242 422 l 204 533 l 36 533 l 36 650 l 157 650 l 30 1003 l 169 1003 l 309 587 l 312 587 l 447 1003 l 586 1003 l 459 650 l 580 650 l 580 533 "},"ì":{"x_min":8,"x_max":377,"ha":386,"o":"m 107 0 l 107 1003 l 279 1003 l 279 0 l 107 0 m 227 1072 l 227 1222 l 377 1222 l 377 1072 l 227 1072 m 158 1222 l 158 1072 l 8 1072 l 8 1222 l 158 1222 "},"±":{"x_min":65.28125,"x_max":768.34375,"ha":833,"o":"m 349 702 l 485 702 l 485 512 l 768 512 l 768 376 l 485 376 l 485 185 l 349 185 l 349 376 l 65 376 l 65 512 l 349 512 l 349 702 m 65 136 l 768 136 l 768 0 l 65 0 l 65 136 "},"Ú":{"x_min":-232,"x_max":464,"ha":232,"o":"m -232 -14 l 337 1017 l 464 1017 l -105 -14 l -232 -14 "},"|":{"x_min":86,"x_max":222,"ha":308,"o":"m 86 1017 l 222 1017 l 222 -14 l 86 -14 l 86 1017 "},"§":{"x_min":75,"x_max":558,"ha":616,"o":"m 75 0 l 75 749 q 132 945 75 880 q 295 1011 190 1011 q 411 989 365 1011 q 484 931 456 967 q 521 844 511 894 q 532 737 532 794 q 508 605 532 653 q 430 551 484 557 l 430 548 q 527 465 496 527 q 558 283 558 404 q 547 146 558 201 q 516 59 537 91 q 465 13 495 26 q 396 0 435 0 l 305 0 l 305 132 q 342 128 321 128 q 385 150 374 128 q 397 220 397 173 l 397 361 q 374 443 397 418 q 311 469 352 469 l 311 597 q 344 605 331 599 q 363 622 356 610 q 373 651 370 633 q 376 697 376 669 l 376 794 q 358 862 376 842 q 304 883 340 883 q 247 858 264 883 q 231 780 231 834 l 231 0 l 75 0 "},"Ý":{"x_min":78,"x_max":375,"ha":463,"o":"m 240 374 l 78 588 l 215 588 l 375 375 l 215 160 l 82 160 l 240 374 "},"b":{"x_min":75,"x_max":550,"ha":617,"o":"m 75 0 l 75 1003 l 231 1003 l 230 683 q 272 716 254 702 q 308 740 290 730 q 346 756 326 751 q 391 761 366 761 q 507 708 464 761 q 550 552 550 655 l 550 194 q 507 38 550 91 q 391 -14 464 -14 q 298 7 332 -14 q 225 77 263 29 l 222 77 l 222 0 l 75 0 m 231 152 q 275 125 254 136 q 319 114 295 114 q 372 137 351 114 q 394 234 394 161 l 394 512 q 372 609 394 585 q 319 633 351 633 q 275 621 295 633 q 231 594 254 610 l 231 152 "},"q":{"x_min":67,"x_max":542,"ha":617,"o":"m 542 747 l 542 -236 l 386 -236 l 386 63 q 345 31 363 45 q 308 6 326 16 q 270 -9 290 -4 q 226 -14 250 -14 q 109 38 152 -14 q 67 194 67 91 l 67 552 q 109 708 67 655 q 226 761 152 761 q 318 739 284 761 q 392 669 353 717 l 394 669 l 394 747 l 542 747 m 386 594 q 341 621 362 610 q 297 633 321 633 q 268 628 282 633 q 244 609 254 623 q 228 572 234 595 q 223 512 223 549 l 223 234 q 228 174 223 197 q 244 137 234 151 q 268 118 254 123 q 297 114 282 114 q 341 125 321 114 q 386 152 362 136 l 386 594 "},"Ö":{"x_min":65.28125,"x_max":768.109375,"ha":833,"o":"m 65 283 l 65 419 l 768 419 l 768 283 l 65 283 m 306 639 q 338 717 306 684 q 417 750 371 750 q 495 717 462 750 q 528 639 528 684 q 495 560 528 593 q 417 528 462 528 q 338 560 371 528 q 306 639 306 593 m 306 64 q 338 142 306 109 q 417 175 371 175 q 495 142 462 175 q 528 64 528 109 q 495 -14 528 18 q 417 -47 462 -47 q 338 -14 371 -47 q 306 64 306 18 "},"\u0001":{"x_min":27.4375,"x_max":612,"ha":695,"o":"m 27 594 l 83 594 l 83 1003 l 339 1003 q 543 929 474 1003 q 612 700 612 855 l 612 302 q 543 73 612 147 q 339 0 474 0 l 83 0 l 83 444 l 27 444 l 27 594 m 357 444 l 255 444 l 255 142 l 315 142 q 412 172 385 142 q 440 282 440 203 l 440 720 q 412 830 440 799 q 315 861 385 861 l 255 861 l 255 594 l 357 594 l 357 444 "},"z":{"x_min":41.671875,"x_max":498.65625,"ha":540,"o":"m 61 619 l 61 747 l 498 747 l 498 619 l 208 128 l 498 128 l 498 0 l 41 0 l 41 127 l 326 619 l 61 619 "},"™":{"x_min":67,"x_max":550,"ha":617,"o":"m 394 510 q 371 604 394 576 q 308 633 349 633 q 245 604 267 633 q 223 510 223 576 l 223 236 q 245 142 223 170 q 308 114 267 114 q 371 142 349 114 q 394 236 394 170 l 394 510 m 67 483 q 79 595 67 544 q 121 683 91 647 q 196 740 150 720 q 308 761 241 761 q 420 740 375 761 q 495 683 466 720 q 537 595 525 647 q 550 483 550 544 l 550 263 q 537 151 550 202 q 495 63 525 99 q 420 6 466 26 q 308 -14 375 -14 q 196 6 241 -14 q 121 63 150 26 q 79 151 91 99 q 67 263 67 202 l 67 483 m 232 1036 l 384 1036 l 518 836 l 390 836 l 308 959 l 226 836 l 99 836 l 232 1036 "},"\u000b":{"x_min":83,"x_max":642,"ha":695,"o":"m 255 809 l 330 809 q 468 793 409 809 q 566 741 527 777 q 623 649 604 706 q 642 513 642 593 q 566 285 642 353 q 330 217 490 217 l 255 217 l 255 0 l 83 0 l 83 1003 l 255 1003 l 255 809 m 255 359 l 322 359 q 392 366 363 359 q 438 391 421 374 q 463 438 456 408 q 470 513 470 468 q 463 587 470 557 q 438 635 456 617 q 392 660 421 653 q 322 667 363 667 l 255 667 l 255 359 "},"ã":{"x_min":93.4375,"x_max":520,"ha":617,"o":"m 520 0 l 424 -172 l 350 -172 l 418 0 l 356 0 l 356 164 l 520 164 l 520 0 m 263 0 l 167 -172 l 93 -172 l 161 0 l 99 0 l 99 164 l 263 164 l 263 0 "},"\u0019":{"x_min":28,"x_max":355,"ha":369,"o":"m 147 580 l 147 550 q 184 508 147 508 q 212 520 203 508 q 222 562 222 533 l 222 596 q 202 658 222 645 q 143 672 183 672 l 143 775 q 200 789 181 775 q 219 855 219 804 q 210 895 219 880 q 182 911 202 911 q 156 899 164 911 q 148 872 148 887 l 148 849 l 32 849 l 32 876 q 73 978 32 939 q 188 1017 115 1017 q 258 1004 229 1017 q 308 970 288 991 q 337 921 327 948 q 347 862 347 893 q 334 778 347 809 q 281 724 321 747 q 341 668 327 701 q 355 574 355 635 q 314 440 355 484 q 181 397 273 397 q 69 431 111 397 q 28 545 28 466 l 28 580 l 147 580 "},"æ":{"x_min":83,"x_max":563.359375,"ha":617,"o":"m 83 0 l 83 1003 l 543 1003 l 543 853 l 255 853 l 255 594 l 477 594 l 477 444 l 255 444 l 255 150 l 563 150 l 563 0 l 83 0 m 249 1255 l 401 1255 l 535 1055 l 407 1055 l 325 1178 l 243 1055 l 116 1055 l 249 1255 "},"®":{"x_min":16.75,"x_max":949.921875,"ha":1003,"o":"m 464 386 l 464 878 l 461 878 l 311 386 l 464 386 m 340 1003 l 930 1003 l 930 853 l 636 853 l 636 594 l 863 594 l 863 444 l 636 444 l 636 150 l 949 150 l 949 0 l 464 0 l 464 236 l 263 236 l 191 0 l 16 0 l 340 1003 "},"É":{"x_min":153,"x_max":1237,"ha":1390,"o":"m 153 0 l 153 164 l 311 164 l 311 0 l 153 0 m 616 0 l 616 164 l 774 164 l 774 0 l 616 0 m 1079 0 l 1079 164 l 1237 164 l 1237 0 l 1079 0 "},"~":{"x_min":85,"x_max":749,"ha":833,"o":"m 749 345 q 710 308 729 327 q 669 273 690 289 q 621 247 647 257 q 564 237 596 237 q 491 250 525 237 q 422 282 457 263 q 352 312 393 299 q 262 326 311 326 q 189 297 216 326 q 146 237 162 269 l 85 356 q 118 393 100 374 q 157 428 136 412 q 207 454 179 444 q 269 465 235 465 q 344 451 305 465 q 423 420 383 438 q 496 390 462 403 q 565 376 529 376 q 635 404 607 376 q 687 465 664 433 l 749 345 "},"¡":{"x_min":78,"x_max":478,"ha":556,"o":"m 278 697 q 360 732 328 697 q 392 818 392 767 q 360 903 392 868 q 278 939 328 939 q 195 903 227 939 q 164 818 164 868 q 195 732 164 767 q 278 697 227 697 m 278 619 q 199 634 236 619 q 135 676 162 649 q 93 740 108 703 q 78 818 78 776 q 93 895 78 859 q 135 959 108 932 q 199 1001 162 986 q 278 1017 236 1017 q 356 1001 319 1017 q 420 959 393 986 q 462 895 447 932 q 478 818 478 859 q 462 740 478 776 q 420 676 447 703 q 356 634 393 649 q 278 619 319 619 "},"[":{"x_min":50,"x_max":346.90625,"ha":386,"o":"m 346 936 l 183 936 l 183 -39 l 346 -39 l 346 -106 l 50 -106 l 50 1003 l 346 1003 l 346 936 "},"L":{"x_min":75,"x_max":517.859375,"ha":540,"o":"m 75 0 l 75 1003 l 247 1003 l 247 150 l 517 150 l 517 0 l 75 0 "},"":{"x_min":67,"x_max":550,"ha":617,"o":"m 394 472 l 394 510 q 371 604 394 576 q 308 633 349 633 q 245 604 267 633 q 223 510 223 576 l 223 472 l 394 472 m 550 344 l 223 344 l 223 235 q 245 142 223 170 q 308 114 267 114 q 371 142 349 114 q 394 236 394 170 l 394 252 l 550 252 q 535 144 548 193 q 493 60 522 95 q 418 5 463 24 q 308 -14 373 -14 q 196 6 241 -14 q 121 63 150 26 q 79 151 91 99 q 67 263 67 202 l 67 483 q 79 595 67 544 q 121 683 91 647 q 196 740 150 720 q 308 761 241 761 q 420 740 375 761 q 495 683 466 720 q 537 595 525 647 q 550 483 550 544 l 550 344 m 232 1036 l 384 1036 l 518 836 l 390 836 l 308 959 l 226 836 l 99 836 l 232 1036 "},"\u001d":{"x_min":65.28125,"x_max":768.109375,"ha":833,"o":"m 513 351 l 768 97 l 672 0 l 416 255 l 161 0 l 65 97 l 320 351 l 65 607 l 161 702 l 416 447 l 672 702 l 768 607 l 513 351 "}," ":{"x_min":0,"x_max":0,"ha":308},"\u000f":{"x_min":41.671875,"x_max":498.65625,"ha":540,"o":"m 61 619 l 61 747 l 498 747 l 498 619 l 208 128 l 498 128 l 498 0 l 41 0 l 41 127 l 326 619 l 61 619 m 347 836 l 195 836 l 62 1036 l 189 1036 l 271 912 l 353 1036 l 481 1036 l 347 836 "},"%":{"x_min":70,"x_max":1011,"ha":1080,"o":"m 70 775 q 88 863 70 822 q 136 936 106 905 q 208 984 167 966 q 297 1003 250 1003 q 386 984 344 1003 q 458 936 427 966 q 506 863 488 905 q 525 775 525 822 q 506 686 525 727 q 458 613 488 644 q 386 565 427 583 q 297 547 344 547 q 208 565 250 547 q 136 613 167 583 q 88 686 106 644 q 70 775 70 727 m 181 775 q 214 692 181 726 q 297 658 248 658 q 380 692 346 658 q 414 775 414 726 q 380 857 414 823 q 297 892 346 892 q 214 857 248 892 q 181 775 181 823 m 667 228 q 700 145 667 179 q 783 111 734 111 q 866 145 832 111 q 900 228 900 179 q 866 310 900 276 q 783 345 832 345 q 700 310 734 345 q 667 228 667 276 m 556 228 q 574 316 556 275 q 622 389 592 358 q 694 437 653 419 q 783 456 736 456 q 872 437 830 456 q 944 389 913 419 q 992 316 974 358 q 1011 228 1011 275 q 992 139 1011 180 q 944 66 974 97 q 872 18 913 36 q 783 0 830 0 q 694 18 736 0 q 622 66 653 36 q 574 139 592 97 q 556 228 556 180 m 877 1016 l 310 -13 l 206 -13 l 773 1016 l 877 1016 "},"P":{"x_min":83,"x_max":642,"ha":695,"o":"m 255 553 l 322 553 q 392 560 363 553 q 438 585 421 568 q 463 632 456 602 q 470 707 470 662 q 463 781 470 751 q 438 829 456 811 q 392 854 421 847 q 322 861 363 861 l 255 861 l 255 553 m 83 0 l 83 1003 l 330 1003 q 468 987 409 1003 q 566 935 527 971 q 623 843 604 900 q 642 707 642 787 q 566 479 642 547 q 330 411 490 411 l 255 411 l 255 0 l 83 0 "},"À":{"x_min":44,"x_max":495.296875,"ha":540,"o":"m 350 452 l 350 335 q 327 204 350 263 q 277 95 305 145 q 227 2 249 45 q 205 -79 205 -40 q 220 -123 205 -104 q 263 -142 236 -142 q 301 -132 285 -142 q 329 -107 317 -122 q 349 -73 341 -92 q 361 -36 357 -54 l 495 -86 q 403 -224 463 -178 q 243 -270 343 -270 q 168 -256 205 -270 q 105 -217 132 -242 q 60 -158 77 -192 q 44 -83 44 -123 q 51 -14 44 -44 q 71 39 59 14 q 98 87 83 64 q 130 131 113 109 q 162 177 147 153 q 189 230 177 201 q 209 295 201 259 q 217 377 217 331 l 217 452 l 350 452 m 368 747 l 368 583 l 204 583 l 204 747 l 368 747 "},"_":{"x_min":0,"x_max":694.5,"ha":695,"o":"m 0 -173 l 0 -104 l 694 -104 l 694 -173 l 0 -173 "},"ñ":{"x_min":83,"x_max":612,"ha":695,"o":"m 83 759 q 99 859 83 812 q 147 941 115 907 q 229 996 180 976 q 347 1017 279 1017 q 465 996 415 1017 q 547 941 514 976 q 595 859 579 907 q 612 759 612 812 l 612 243 q 595 143 612 190 q 547 61 579 95 q 465 6 514 26 q 347 -14 415 -14 q 229 6 279 -14 q 147 61 180 26 q 99 143 115 95 q 83 243 83 190 l 83 759 m 255 247 q 274 163 255 190 q 347 136 294 136 q 420 163 400 136 q 440 247 440 190 l 440 755 q 420 839 440 812 q 347 867 400 867 q 274 839 294 867 q 255 755 255 812 l 255 247 m 149 1255 l 336 1255 l 446 1055 l 330 1055 l 149 1255 "},"+":{"x_min":65.640625,"x_max":768.34375,"ha":833,"o":"m 349 702 l 485 702 l 485 419 l 768 419 l 768 283 l 485 283 l 485 0 l 349 0 l 349 283 l 65 283 l 65 419 l 349 419 l 349 702 "},"‚":{"x_min":83,"x_max":603,"ha":695,"o":"m 431 668 l 431 746 q 405 838 431 810 q 347 867 380 867 q 274 839 294 867 q 255 755 255 812 l 255 247 q 274 163 255 190 q 347 136 294 136 q 412 162 394 136 q 431 237 431 188 l 431 358 l 603 358 l 603 242 q 587 142 603 190 q 539 61 571 95 q 460 6 508 26 q 347 -14 412 -14 q 229 6 279 -14 q 147 61 180 26 q 98 143 114 95 q 83 243 83 190 l 83 759 q 98 859 83 812 q 147 941 114 907 q 229 996 180 976 q 347 1017 279 1017 q 460 995 412 1017 q 539 936 508 973 q 587 848 571 898 q 603 741 603 798 l 603 668 l 431 668 m 203 -226 q 247 -242 220 -234 q 294 -250 274 -250 q 353 -233 330 -250 q 376 -193 376 -216 q 363 -161 376 -172 q 332 -145 351 -150 q 294 -144 314 -141 q 260 -152 274 -147 l 230 -127 l 324 0 l 391 0 l 334 -83 q 348 -81 341 -81 q 363 -80 356 -80 q 409 -88 387 -81 q 449 -108 431 -95 q 478 -140 467 -120 q 490 -186 490 -159 q 475 -245 490 -219 q 437 -290 460 -272 q 382 -318 413 -308 q 317 -328 351 -328 q 231 -315 267 -328 q 180 -295 195 -302 l 203 -226 "},"":{"x_min":67,"x_max":550,"ha":617,"o":"m 394 472 l 394 510 q 371 604 394 576 q 308 633 349 633 q 245 604 267 633 q 223 510 223 576 l 223 472 l 394 472 m 550 344 l 223 344 l 223 235 q 245 142 223 170 q 308 114 267 114 q 371 142 349 114 q 394 236 394 170 l 394 252 l 550 252 q 535 144 548 193 q 493 60 522 95 q 418 5 463 24 q 308 -14 373 -14 q 196 6 241 -14 q 121 63 150 26 q 79 151 91 99 q 67 263 67 202 l 67 483 q 79 595 67 544 q 121 683 91 647 q 196 740 150 720 q 308 761 241 761 q 420 740 375 761 q 495 683 466 720 q 537 595 525 647 q 550 483 550 544 l 550 344 m 325 836 l 210 836 l 319 1036 l 507 1036 l 325 836 "},"Ë":{"x_min":16.671875,"x_max":600.046875,"ha":617,"o":"m 238 372 l 377 372 l 309 802 l 306 802 l 238 372 m 183 0 l 16 0 l 201 1003 l 415 1003 l 600 0 l 433 0 l 402 222 l 213 222 l 183 0 m 110 1255 l 297 1255 l 407 1055 l 291 1055 l 110 1255 "},"'":{"x_min":89,"x_max":220,"ha":308,"o":"m 89 1003 l 220 1003 l 220 622 l 89 622 l 89 1003 "},"Š":{"x_min":47,"x_max":545,"ha":617,"o":"m 58 527 q 131 701 64 641 q 308 761 198 761 q 475 711 416 761 q 535 558 535 661 l 535 79 q 538 40 535 61 q 545 0 542 19 l 395 0 q 391 29 393 15 q 387 58 388 44 q 302 4 342 22 q 205 -14 262 -14 q 86 33 126 -14 q 47 154 47 81 q 67 263 47 215 q 128 352 87 312 q 233 426 170 392 q 379 492 295 460 l 379 537 q 302 633 379 633 q 233 604 250 633 q 214 527 216 576 l 58 527 m 379 379 q 292 323 326 348 q 238 274 258 298 q 210 229 218 251 q 203 182 203 206 q 221 129 203 145 q 275 114 239 114 q 333 134 306 114 q 379 183 359 155 l 379 379 m 342 853 l 342 1003 l 492 1003 l 492 853 l 342 853 m 273 1003 l 273 853 l 123 853 l 123 1003 l 273 1003 "},"ª":{"x_min":47.3125,"x_max":1250,"ha":1375,"o":"m 919 626 l 1062 1003 l 1250 1003 l 1250 430 l 1122 430 l 1122 850 l 1119 850 l 966 430 l 870 430 l 717 850 l 715 850 l 715 430 l 587 430 l 587 1003 l 776 1003 l 919 626 m 513 899 l 347 899 l 347 430 l 214 430 l 214 899 l 47 899 l 47 1003 l 513 1003 l 513 899 "},"Œ":{"x_min":47,"x_max":545,"ha":617,"o":"m 58 527 q 131 701 64 641 q 308 761 198 761 q 475 711 416 761 q 535 558 535 661 l 535 79 q 538 40 535 61 q 545 0 542 19 l 395 0 q 391 29 393 15 q 387 58 388 44 q 302 4 342 22 q 205 -14 262 -14 q 86 33 126 -14 q 47 154 47 81 q 67 263 47 215 q 128 352 87 312 q 233 426 170 392 q 379 492 295 460 l 379 537 q 302 633 379 633 q 233 604 250 633 q 214 527 216 576 l 58 527 m 379 379 q 292 323 326 348 q 238 274 258 298 q 210 229 218 251 q 203 182 203 206 q 221 129 203 145 q 275 114 239 114 q 333 134 306 114 q 379 183 359 155 l 379 379 m 167 977 q 178 1032 167 1006 q 208 1077 189 1057 q 253 1107 227 1096 q 308 1119 278 1119 q 362 1107 337 1119 q 407 1077 388 1096 q 437 1032 426 1057 q 449 977 449 1006 q 437 922 449 948 q 407 877 426 897 q 362 847 388 858 q 308 836 337 836 q 253 847 278 836 q 208 877 227 858 q 178 922 189 897 q 167 977 167 948 m 236 977 q 256 925 236 946 q 308 905 277 905 q 359 925 338 905 q 380 977 380 946 q 359 1029 380 1008 q 308 1050 338 1050 q 256 1029 277 1050 q 236 977 236 1008 "},"T":{"x_min":16.328125,"x_max":521.6875,"ha":540,"o":"m 183 853 l 16 853 l 16 1003 l 521 1003 l 521 853 l 355 853 l 355 0 l 183 0 l 183 853 "},"š":{"x_min":67,"x_max":550,"ha":617,"o":"m 394 510 q 371 604 394 576 q 308 633 349 633 q 245 604 267 633 q 223 510 223 576 l 223 236 q 245 142 223 170 q 308 114 267 114 q 371 142 349 114 q 394 236 394 170 l 394 510 m 67 483 q 79 595 67 544 q 121 683 91 647 q 196 740 150 720 q 308 761 241 761 q 420 740 375 761 q 495 683 466 720 q 537 595 525 647 q 550 483 550 544 l 550 263 q 537 151 550 202 q 495 63 525 99 q 420 6 466 26 q 308 -14 375 -14 q 196 6 241 -14 q 121 63 150 26 q 79 151 91 99 q 67 263 67 202 l 67 483 m 342 853 l 342 1003 l 492 1003 l 492 853 l 342 853 m 273 1003 l 273 853 l 123 853 l 123 1003 l 273 1003 "},"Þ":{"x_min":-5.6875,"x_max":541,"ha":617,"o":"m 86 619 l -5 619 l -5 747 l 86 747 l 86 840 q 131 974 86 932 q 260 1017 176 1017 l 337 1017 l 337 889 l 293 889 q 253 877 265 889 q 242 838 242 866 l 242 747 l 330 747 l 330 619 l 242 619 l 242 0 l 86 0 l 86 619 m 385 0 l 385 747 l 541 747 l 541 0 l 385 0 m 385 861 l 385 1003 l 541 1003 l 541 861 l 385 861 "},"\u0003":{"x_min":0,"x_max":517.859375,"ha":540,"o":"m 247 150 l 517 150 l 517 0 l 75 0 l 75 403 l 0 372 l 0 486 l 75 516 l 75 1003 l 247 1003 l 247 584 l 408 650 l 408 536 l 247 470 l 247 150 "},"j":{"x_min":1,"x_max":241,"ha":309,"o":"m 1 -94 l 27 -94 q 71 -77 58 -94 q 85 -35 85 -60 l 85 746 l 241 746 l 241 -42 q 226 -136 241 -98 q 186 -195 211 -173 q 129 -226 161 -217 q 60 -236 96 -236 l 1 -236 l 1 -94 m 85 861 l 85 1003 l 241 1003 l 241 861 l 85 861 "},"1":{"x_min":109.875,"x_max":402,"ha":617,"o":"m 246 795 l 109 795 l 109 887 q 219 949 168 917 q 314 1017 271 980 l 402 1017 l 402 0 l 246 0 l 246 795 "},"›":{"x_min":67,"x_max":550,"ha":617,"o":"m 394 510 q 371 604 394 576 q 308 633 349 633 q 245 604 267 633 q 223 510 223 576 l 223 236 q 245 142 223 170 q 308 114 267 114 q 371 142 349 114 q 394 236 394 170 l 394 510 m 67 483 q 79 595 67 544 q 121 683 91 647 q 196 740 150 720 q 308 761 241 761 q 420 740 375 761 q 495 683 466 720 q 537 595 525 647 q 550 483 550 544 l 550 263 q 537 151 550 202 q 495 63 525 99 q 420 6 466 26 q 308 -14 375 -14 q 196 6 241 -14 q 121 63 150 26 q 79 151 91 99 q 67 263 67 202 l 67 483 m 535 1018 q 519 958 529 988 q 493 906 509 929 q 451 868 476 883 q 391 854 426 854 q 344 862 366 854 q 301 881 322 870 q 260 900 280 892 q 218 908 240 908 q 173 892 186 908 q 159 847 161 877 l 82 847 q 97 906 87 876 q 123 958 107 935 q 165 996 140 981 q 225 1011 190 1011 q 272 1002 250 1011 q 315 984 294 994 q 356 965 336 974 q 398 956 376 956 q 443 972 430 956 q 457 1018 455 987 l 535 1018 "},"ä":{"x_min":20,"x_max":1369,"ha":1388,"o":"m 20 794 q 36 875 20 837 q 81 941 53 914 q 146 986 108 969 q 228 1003 185 1003 q 309 986 270 1003 q 374 941 347 969 q 419 875 402 914 q 436 794 436 837 q 419 713 436 751 q 374 647 402 674 q 309 602 347 619 q 228 586 270 586 q 146 602 185 586 q 81 647 108 619 q 36 713 53 674 q 20 794 20 751 m 131 794 q 159 725 131 754 q 228 697 187 697 q 296 725 268 697 q 325 794 325 754 q 296 863 325 834 q 228 892 268 892 q 159 863 187 892 q 131 794 131 834 m 461 208 q 477 289 461 251 q 522 355 494 328 q 588 400 549 383 q 669 417 626 417 q 750 400 712 417 q 816 355 789 383 q 861 289 844 328 q 878 208 878 251 q 861 127 878 165 q 816 61 844 88 q 750 16 789 33 q 669 0 712 0 q 588 16 626 0 q 522 61 549 33 q 477 127 494 88 q 461 208 461 165 m 572 208 q 600 139 572 168 q 669 111 629 111 q 738 139 709 111 q 767 208 767 168 q 738 277 767 248 q 669 306 709 306 q 600 277 629 306 q 572 208 572 248 m 953 208 q 969 289 953 251 q 1014 355 986 328 q 1079 400 1041 383 q 1161 417 1118 417 q 1242 400 1203 417 q 1307 355 1280 383 q 1352 289 1335 328 q 1369 208 1369 251 q 1352 127 1369 165 q 1307 61 1335 88 q 1242 16 1280 33 q 1161 0 1203 0 q 1079 16 1118 0 q 1014 61 1041 33 q 969 127 986 88 q 953 208 953 165 m 1064 208 q 1092 139 1064 168 q 1161 111 1120 111 q 1229 139 1201 111 q 1258 208 1258 168 q 1229 277 1258 248 q 1161 306 1201 306 q 1092 277 1120 306 q 1064 208 1064 248 m 704 1016 l 801 1016 l 231 -13 l 133 -13 l 704 1016 "},"<":{"x_min":65.28125,"x_max":768.109375,"ha":833,"o":"m 768 0 l 65 292 l 65 409 l 768 702 l 768 558 l 261 351 l 768 144 l 768 0 "},"£":{"x_min":48.375,"x_max":564,"ha":617,"o":"m 49 134 q 103 166 82 145 q 135 224 124 187 q 151 314 147 261 q 156 443 156 367 l 48 443 l 48 560 l 136 560 q 108 684 120 623 q 97 787 97 744 q 152 956 97 896 q 326 1017 208 1017 q 495 948 440 1017 q 550 736 550 880 l 408 736 q 401 811 406 782 q 385 858 395 841 q 359 882 374 875 q 322 889 344 889 q 253 800 253 889 q 267 682 253 739 q 293 560 282 626 l 431 560 l 431 443 l 306 443 q 296 284 304 350 q 257 161 289 218 q 303 137 278 146 q 354 128 328 128 q 390 139 376 128 q 411 172 404 151 q 422 220 419 193 q 425 276 425 247 l 564 276 l 564 194 q 516 40 564 95 q 379 -14 468 -14 q 282 4 326 -14 q 201 52 237 23 q 128 8 165 27 q 49 -14 92 -9 l 49 134 "},"¬":{"x_min":-31,"x_max":338,"ha":307,"o":"m 188 853 l 188 1003 l 338 1003 l 338 853 l 188 853 m 119 1003 l 119 853 l -31 853 l -31 1003 l 119 1003 "},"t":{"x_min":13.875,"x_max":360.171875,"ha":386,"o":"m 13 619 l 13 747 l 100 747 l 100 948 l 256 948 l 256 747 l 360 747 l 360 619 l 256 619 l 256 189 q 308 128 256 128 l 360 128 l 360 -6 q 328 -12 344 -10 q 282 -14 311 -14 q 147 26 194 -14 q 100 153 100 67 l 100 619 l 13 619 "},"ù":{"x_min":-50,"x_max":358,"ha":308,"o":"m 358 1039 q 342 964 355 1000 q 303 901 328 928 q 241 858 278 874 q 154 843 203 843 q 66 858 104 843 q 4 901 29 874 q -34 964 -20 928 q -50 1039 -47 1000 l 31 1039 q 68 961 37 985 q 154 937 98 937 q 239 961 209 937 q 277 1039 270 985 l 358 1039 "},"W":{"x_min":0,"x_max":900.078125,"ha":926,"o":"m 381 1003 l 523 1003 l 640 363 l 643 363 l 738 1003 l 900 1003 l 723 0 l 579 0 l 454 662 l 451 662 l 334 0 l 190 0 l 0 1003 l 161 1003 l 266 363 l 269 363 l 381 1003 "},"ï":{"x_min":83,"x_max":612,"ha":695,"o":"m 83 759 q 99 859 83 812 q 147 941 115 907 q 229 996 180 976 q 347 1017 279 1017 q 465 996 415 1017 q 547 941 514 976 q 595 859 579 907 q 612 759 612 812 l 612 243 q 595 143 612 190 q 547 61 579 95 q 465 6 514 26 q 347 -14 415 -14 q 229 6 279 -14 q 147 61 180 26 q 99 143 115 95 q 83 243 83 190 l 83 759 m 255 247 q 274 163 255 190 q 347 136 294 136 q 420 163 400 136 q 440 247 440 190 l 440 755 q 420 839 440 812 q 347 867 400 867 q 274 839 294 867 q 255 755 255 812 l 255 247 m 271 1255 l 423 1255 l 557 1055 l 429 1055 l 347 1178 l 265 1055 l 138 1055 l 271 1255 "},"":{"x_min":67,"x_max":550,"ha":617,"o":"m 394 491 l 394 510 q 371 604 394 576 q 308 633 349 633 q 245 604 267 633 q 223 510 223 576 l 223 236 q 245 142 223 170 q 308 114 267 114 q 371 142 349 114 q 394 236 394 170 l 394 283 l 550 283 l 550 264 q 537 151 550 202 q 495 63 525 100 q 420 6 466 26 q 308 -14 375 -14 q 196 6 241 -14 q 121 63 150 26 q 79 151 91 99 q 67 263 67 202 l 67 483 q 79 595 67 544 q 121 683 91 647 q 196 740 150 720 q 308 761 241 761 q 419 741 373 761 q 493 686 465 722 q 535 601 522 651 q 550 491 548 551 l 394 491 m 164 -226 q 208 -242 181 -234 q 255 -250 235 -250 q 314 -233 291 -250 q 337 -193 337 -216 q 324 -161 337 -172 q 293 -145 312 -150 q 255 -144 275 -141 q 221 -152 235 -147 l 191 -127 l 285 0 l 352 0 l 295 -83 q 309 -81 302 -81 q 324 -80 317 -80 q 370 -88 348 -81 q 410 -108 392 -95 q 439 -140 428 -120 q 451 -186 451 -159 q 436 -245 451 -219 q 398 -290 421 -272 q 343 -318 374 -308 q 278 -328 312 -328 q 192 -315 228 -328 q 141 -295 156 -302 l 164 -226 "},">":{"x_min":65.28125,"x_max":768.109375,"ha":833,"o":"m 65 144 l 572 351 l 65 558 l 65 702 l 768 409 l 768 292 l 65 0 l 65 144 "},"v":{"x_min":13.890625,"x_max":526.4375,"ha":540,"o":"m 368 747 l 526 747 l 345 0 l 194 0 l 13 747 l 172 747 l 268 247 l 270 247 l 368 747 "},"û":{"x_min":13,"x_max":295,"ha":308,"o":"m 13 977 q 24 1032 13 1006 q 54 1077 35 1057 q 99 1107 73 1096 q 154 1119 124 1119 q 208 1107 183 1119 q 253 1077 234 1096 q 283 1032 272 1057 q 295 977 295 1006 q 283 922 295 948 q 253 877 272 897 q 208 847 234 858 q 154 836 183 836 q 99 847 124 836 q 54 877 73 858 q 24 922 35 897 q 13 977 13 948 m 82 977 q 102 925 82 946 q 154 905 123 905 q 205 925 184 905 q 226 977 226 946 q 205 1029 226 1008 q 154 1050 184 1050 q 102 1029 123 1050 q 82 977 82 1008 "},"Ò":{"x_min":97,"x_max":523,"ha":617,"o":"m 97 844 l 192 1017 l 266 1017 l 198 844 l 261 845 l 261 681 l 97 681 l 97 844 m 354 844 l 449 1017 l 523 1017 l 455 845 l 518 845 l 518 681 l 354 681 l 354 844 "},"&":{"x_min":73,"x_max":703.953125,"ha":772,"o":"m 267 818 q 281 719 267 769 q 314 625 296 669 q 370 710 344 665 q 397 808 397 755 q 381 891 397 866 q 334 917 365 917 q 284 891 302 917 q 267 818 267 865 m 702 448 q 661 315 687 379 q 608 186 635 251 q 652 155 627 168 q 703 139 677 143 l 703 -14 q 509 62 590 -11 q 422 4 467 22 q 312 -14 377 -14 q 214 3 258 -14 q 138 51 170 20 q 90 125 107 81 q 73 220 73 169 q 112 373 73 300 q 204 504 151 447 q 150 639 176 565 q 125 780 125 714 q 138 875 125 832 q 179 949 152 918 q 247 998 206 980 q 342 1017 288 1017 q 492 960 438 1017 q 547 808 547 903 q 531 720 547 761 q 490 641 515 679 q 434 570 465 604 q 374 504 403 536 q 432 398 401 450 q 499 300 463 347 q 533 391 517 345 q 560 486 549 437 l 702 448 m 231 243 q 259 167 231 198 q 332 136 287 136 q 374 142 357 136 q 411 165 392 148 q 336 261 371 212 q 273 366 301 311 q 241 308 251 333 q 231 243 231 283 "},"Ð":{"x_min":0,"x_max":694.5,"ha":695,"o":"m 0 324 l 0 424 l 694 424 l 694 324 l 0 324 "},"I":{"x_min":107,"x_max":279,"ha":386,"o":"m 107 0 l 107 1003 l 279 1003 l 279 0 l 107 0 "},"G":{"x_min":83,"x_max":603,"ha":695,"o":"m 321 508 l 603 508 l 603 0 l 519 0 l 487 74 q 412 7 448 29 q 313 -14 375 -14 q 147 54 211 -14 q 83 243 83 122 l 83 759 q 99 859 83 812 q 146 941 115 907 q 224 996 177 976 q 336 1017 272 1017 q 449 995 401 1017 q 530 936 497 973 q 579 848 563 898 q 595 741 595 798 l 595 678 l 431 678 q 425 771 431 735 q 407 828 419 807 q 375 858 394 850 q 331 867 356 867 q 277 844 299 867 q 255 757 255 821 l 255 241 q 273 164 255 192 q 336 136 291 136 q 410 167 389 136 q 431 274 431 199 l 431 372 l 321 372 l 321 508 "},"`":{"x_min":-44,"x_max":253,"ha":309,"o":"m -44 1036 l 143 1036 l 253 836 l 137 836 l -44 1036 "},"r":{"x_min":75,"x_max":435.171875,"ha":463,"o":"m 75 0 l 75 747 l 224 747 l 224 659 l 226 659 q 301 734 254 708 q 403 761 347 761 l 435 761 l 435 598 q 392 609 414 604 q 335 614 369 614 q 262 588 294 614 q 231 513 231 563 l 231 0 l 75 0 "},"¿":{"x_min":59,"x_max":558,"ha":617,"o":"m 254 130 q 307 114 278 114 q 371 142 349 114 q 394 236 394 170 l 394 490 l 391 490 l 254 130 m 150 -167 l 59 -167 l 139 45 q 83 138 100 82 q 67 263 67 194 l 67 483 q 79 595 67 544 q 121 683 91 647 q 195 740 150 720 q 308 761 241 761 q 406 745 361 761 l 463 897 l 558 897 l 483 698 q 534 606 519 661 q 550 483 550 551 l 550 263 q 537 151 550 202 q 495 63 525 99 q 421 6 466 26 q 308 -14 375 -14 q 213 1 254 -14 l 150 -167 m 364 613 q 309 633 345 633 q 245 604 267 633 q 223 510 223 576 l 223 240 l 225 240 l 364 613 "},"":{"x_min":75,"x_max":542,"ha":617,"o":"m 542 747 l 542 0 l 394 0 l 394 75 q 349 37 369 54 q 309 9 330 20 q 263 -7 288 -1 q 205 -14 238 -14 q 108 27 142 -14 q 75 142 75 69 l 75 747 l 231 747 l 231 168 q 246 127 231 140 q 286 114 261 114 q 334 127 311 114 q 386 161 358 141 l 386 747 l 542 747 m 232 1036 l 384 1036 l 518 836 l 390 836 l 308 959 l 226 836 l 99 836 l 232 1036 "},"ý":{"x_min":-64,"x_max":464,"ha":308,"o":"m 45 836 l -64 836 l 31 1036 l 219 1036 l 45 836 m 281 836 l 166 836 l 276 1036 l 464 1036 l 281 836 "},"x":{"x_min":16.671875,"x_max":522.265625,"ha":540,"o":"m 183 395 l 29 747 l 190 747 l 269 538 l 352 747 l 513 747 l 352 398 l 522 0 l 361 0 l 270 252 l 268 252 l 177 0 l 16 0 l 183 395 "},"è":{"x_min":83,"x_max":563.359375,"ha":617,"o":"m 83 0 l 83 1003 l 543 1003 l 543 853 l 255 853 l 255 594 l 477 594 l 477 444 l 255 444 l 255 150 l 563 150 l 563 0 l 83 0 m 359 1072 l 359 1222 l 509 1222 l 509 1072 l 359 1072 m 290 1222 l 290 1072 l 140 1072 l 140 1222 l 290 1222 "},"Ø":{"x_min":13.890625,"x_max":526.4375,"ha":540,"o":"m 369 747 l 526 747 l 330 -55 q 300 -141 318 -107 q 255 -196 281 -175 q 195 -225 229 -216 q 118 -235 162 -235 l 52 -235 l 52 -107 l 90 -107 q 170 -76 148 -107 q 193 13 193 -45 q 188 61 193 37 q 176 112 183 84 l 13 747 l 172 747 l 272 269 l 275 269 l 369 747 m 305 853 l 305 1003 l 455 1003 l 455 853 l 305 853 m 236 1003 l 236 853 l 86 853 l 86 1003 l 236 1003 "},"÷":{"x_min":-72,"x_max":381,"ha":308,"o":"m 381 1018 q 365 958 375 988 q 339 906 355 929 q 297 868 322 883 q 237 854 272 854 q 190 862 212 854 q 147 881 168 870 q 106 900 126 892 q 64 908 86 908 q 19 892 32 908 q 5 847 7 877 l -72 847 q -56 906 -66 876 q -30 958 -46 935 q 11 996 -13 981 q 71 1011 36 1011 q 118 1002 96 1011 q 161 984 140 994 q 202 965 182 974 q 244 956 222 956 q 289 972 276 956 q 303 1018 301 987 l 381 1018 "},"h":{"x_min":75,"x_max":542,"ha":617,"o":"m 75 0 l 75 1003 l 231 1003 l 230 677 q 270 712 251 697 q 308 738 289 727 q 352 754 327 748 q 411 761 378 761 q 507 719 473 761 q 542 604 542 677 l 542 0 l 386 0 l 386 578 q 370 619 386 606 q 330 633 355 633 q 282 619 305 633 q 231 585 258 605 l 231 0 l 75 0 "},"\u0005":{"x_min":39,"x_max":570,"ha":617,"o":"m 398 755 q 386 809 395 787 q 363 843 377 830 q 336 861 350 855 q 306 867 321 867 q 242 841 264 867 q 220 768 220 815 q 245 689 220 725 q 310 616 271 653 q 395 543 349 580 q 479 462 440 507 q 544 364 518 418 q 570 243 570 311 q 549 132 570 180 q 494 52 529 84 q 408 2 458 19 q 297 -14 358 -14 q 190 8 237 -14 q 110 68 143 30 q 59 157 77 106 q 39 263 41 208 l 203 287 q 236 173 208 211 q 305 136 264 136 q 378 159 350 136 q 406 227 406 183 q 380 316 406 277 q 315 391 354 355 q 231 463 276 427 q 146 543 185 500 q 81 640 107 586 q 56 766 56 694 q 125 952 56 887 q 322 1017 195 1017 q 417 998 375 1017 q 489 948 459 980 q 538 871 520 917 q 562 773 556 826 l 398 755 m 384 1055 l 232 1055 l 99 1255 l 226 1255 l 308 1131 l 390 1255 l 518 1255 l 384 1055 "},".":{"x_min":72,"x_max":236,"ha":308,"o":"m 72 0 l 72 164 l 236 164 l 236 0 l 72 0 "},"\b":{"x_min":13.890625,"x_max":526.4375,"ha":540,"o":"m 369 747 l 526 747 l 330 -55 q 300 -141 318 -107 q 255 -196 281 -175 q 195 -225 229 -216 q 118 -235 162 -235 l 52 -235 l 52 -107 l 90 -107 q 170 -76 148 -107 q 193 13 193 -45 q 188 61 193 37 q 176 112 183 84 l 13 747 l 172 747 l 272 269 l 275 269 l 369 747 m 288 836 l 173 836 l 282 1036 l 470 1036 l 288 836 "},";":{"x_min":66.4375,"x_max":236,"ha":308,"o":"m 236 0 l 140 -172 l 66 -172 l 134 0 l 72 0 l 72 164 l 236 164 l 236 0 m 72 386 l 72 550 l 236 550 l 236 386 l 72 386 "},"f":{"x_min":13.328125,"x_max":356.84375,"ha":386,"o":"m 105 619 l 13 619 l 13 747 l 105 747 l 105 840 q 150 974 105 932 q 279 1017 195 1017 l 356 1017 l 356 889 l 312 889 q 272 877 284 889 q 261 838 261 866 l 261 747 l 349 747 l 349 619 l 261 619 l 261 0 l 105 0 l 105 619 "},"“":{"x_min":-44,"x_max":253,"ha":308,"o":"m 76 0 l 76 747 l 232 747 l 232 0 l 76 0 m -44 1036 l 143 1036 l 253 836 l 137 836 l -44 1036 "},"A":{"x_min":16.671875,"x_max":600.046875,"ha":617,"o":"m 238 372 l 377 372 l 309 802 l 306 802 l 238 372 m 183 0 l 16 0 l 201 1003 l 415 1003 l 600 0 l 433 0 l 402 222 l 213 222 l 183 0 "},"6":{"x_min":64,"x_max":553,"ha":617,"o":"m 382 733 l 382 785 q 308 881 382 881 q 228 785 228 881 l 227 550 q 259 579 244 566 q 289 600 273 591 q 324 612 305 608 q 369 617 343 617 q 440 605 407 617 q 498 569 473 594 q 538 505 523 544 q 553 411 553 466 l 553 291 q 496 58 553 131 q 308 -14 439 -14 q 120 52 177 -14 q 64 261 64 118 l 64 741 q 120 951 64 885 q 308 1017 177 1017 q 400 1001 359 1018 q 470 955 441 985 q 516 884 500 925 q 532 794 532 843 l 532 733 l 382 733 m 228 218 q 308 122 228 122 q 389 218 389 122 l 389 384 q 368 457 389 433 q 316 481 348 481 q 268 464 293 481 q 228 435 243 447 l 228 218 "},"‘":{"x_min":67,"x_max":550,"ha":617,"o":"m 394 472 l 394 510 q 371 604 394 576 q 308 633 349 633 q 245 604 267 633 q 223 510 223 576 l 223 472 l 394 472 m 550 344 l 223 344 l 223 235 q 245 142 223 170 q 308 114 267 114 q 371 142 349 114 q 394 236 394 170 l 394 252 l 550 252 q 535 144 548 193 q 493 60 522 95 q 418 5 463 24 q 308 -14 373 -14 q 196 6 241 -14 q 121 63 150 26 q 79 151 91 99 q 67 263 67 202 l 67 483 q 79 595 67 544 q 121 683 91 647 q 196 740 150 720 q 308 761 241 761 q 420 740 375 761 q 495 683 466 720 q 537 595 525 647 q 550 483 550 544 l 550 344 m 342 853 l 342 1003 l 492 1003 l 492 853 l 342 853 m 273 1003 l 273 853 l 123 853 l 123 1003 l 273 1003 "},"O":{"x_min":83,"x_max":612,"ha":695,"o":"m 83 759 q 99 859 83 812 q 147 941 115 907 q 229 996 180 976 q 347 1017 279 1017 q 465 996 415 1017 q 547 941 514 976 q 595 859 579 907 q 612 759 612 812 l 612 243 q 595 143 612 190 q 547 61 579 95 q 465 6 514 26 q 347 -14 415 -14 q 229 6 279 -14 q 147 61 180 26 q 99 143 115 95 q 83 243 83 190 l 83 759 m 255 247 q 274 163 255 190 q 347 136 294 136 q 420 163 400 136 q 440 247 440 190 l 440 755 q 420 839 440 812 q 347 867 400 867 q 274 839 294 867 q 255 755 255 812 l 255 247 "},"n":{"x_min":75,"x_max":542,"ha":617,"o":"m 75 0 l 75 747 l 223 747 l 222 671 q 267 709 247 692 q 307 737 286 726 q 353 754 328 748 q 411 761 378 761 q 507 719 473 761 q 542 604 542 677 l 542 0 l 386 0 l 386 578 q 370 619 386 606 q 330 633 355 633 q 282 619 305 633 q 231 585 258 605 l 231 0 l 75 0 "},"3":{"x_min":64,"x_max":543,"ha":617,"o":"m 220 290 l 220 222 q 238 148 220 174 q 297 122 257 122 q 356 149 334 122 q 379 240 379 177 l 379 316 q 344 428 379 398 q 231 458 310 458 l 231 594 q 296 600 269 594 q 340 625 323 607 q 364 672 356 642 q 372 747 372 702 q 356 849 372 818 q 303 881 341 881 q 246 859 267 881 q 226 778 226 837 l 226 736 l 70 736 l 70 783 q 85 877 70 835 q 131 951 100 919 q 205 999 161 982 q 304 1017 249 1017 q 401 995 360 1017 q 471 938 443 973 q 514 856 500 902 q 528 759 528 809 q 507 618 528 672 q 419 528 486 564 q 481 487 456 509 q 519 435 505 464 q 538 369 533 406 q 543 280 543 331 q 482 57 543 128 q 293 -14 422 -14 q 125 43 186 -14 q 64 230 64 101 l 64 290 l 220 290 "},"9":{"x_min":64,"x_max":553,"ha":617,"o":"m 235 269 l 235 217 q 308 122 235 122 q 389 217 389 122 l 389 452 q 357 423 372 435 q 327 402 343 410 q 292 390 311 394 q 247 386 273 386 q 176 397 209 386 q 118 433 143 408 q 78 497 93 458 q 64 591 64 536 l 64 711 q 120 944 64 871 q 308 1017 177 1017 q 496 951 439 1017 q 553 741 553 885 l 553 261 q 496 52 553 118 q 308 -14 439 -14 q 216 1 257 -15 q 146 47 175 17 q 100 119 116 77 q 85 208 85 160 l 85 269 l 235 269 m 389 784 q 308 881 389 881 q 228 784 228 881 l 228 618 q 248 545 228 569 q 300 522 268 522 q 348 538 323 522 q 389 567 373 555 l 389 784 "},"\u0017":{"x_min":58.78125,"x_max":264,"ha":369,"o":"m 131 871 l 58 871 l 58 937 q 133 973 99 953 q 196 1017 168 993 l 264 1017 l 264 406 l 131 406 l 131 871 "},"l":{"x_min":76,"x_max":232,"ha":308,"o":"m 76 0 l 76 1003 l 232 1003 l 232 0 l 76 0 "},"¤":{"x_min":72,"x_max":623,"ha":695,"o":"m 462 836 q 416 884 441 860 q 357 909 391 909 q 285 845 285 909 q 310 782 285 814 q 372 715 335 750 q 454 642 410 681 q 535 564 497 604 q 597 480 572 523 q 623 389 623 436 q 583 274 623 320 q 472 225 544 227 q 523 160 504 193 q 542 75 542 127 q 528 0 542 33 q 489 -58 514 -34 q 432 -97 465 -83 q 358 -111 398 -111 q 228 -80 282 -111 q 122 1 175 -50 l 223 80 q 266 22 240 48 q 333 -3 291 -3 q 391 13 369 -3 q 414 66 414 30 q 388 130 414 96 q 325 203 363 165 q 243 281 287 241 q 160 364 198 321 q 97 452 122 408 q 72 542 72 496 q 115 653 72 613 q 226 701 158 694 q 174 765 191 727 q 157 847 157 802 q 206 968 157 920 q 357 1017 255 1017 q 473 984 421 1017 q 558 906 526 951 l 462 836 m 200 553 q 213 521 200 542 q 248 472 226 499 q 296 417 269 445 q 348 366 322 390 q 396 328 373 343 q 430 314 418 314 q 476 332 458 314 q 495 374 495 351 q 481 406 495 384 q 447 453 468 427 q 401 508 426 480 q 348 559 375 535 q 299 597 322 582 q 261 612 276 612 q 216 594 232 612 q 200 553 200 577 "},"4":{"x_min":21.96875,"x_max":572.671875,"ha":617,"o":"m 325 370 l 325 761 l 322 761 l 154 370 l 325 370 m 322 242 l 21 242 l 21 369 l 313 1003 l 481 1003 l 481 370 l 572 370 l 572 242 l 481 242 l 481 0 l 322 0 l 322 242 "},"p":{"x_min":75,"x_max":550,"ha":617,"o":"m 223 747 l 223 669 l 225 669 q 298 739 263 717 q 391 761 332 761 q 507 708 464 761 q 550 552 550 655 l 550 194 q 507 38 550 91 q 391 -14 464 -14 q 346 -9 366 -14 q 308 6 326 -4 q 272 31 290 16 q 231 63 254 45 l 231 -236 l 75 -236 l 75 747 l 223 747 m 231 152 q 275 125 254 136 q 319 114 295 114 q 372 137 351 114 q 394 234 394 161 l 394 512 q 372 609 394 585 q 319 633 351 633 q 275 621 295 633 q 231 594 254 610 l 231 152 "},"‡":{"x_min":47,"x_max":545,"ha":617,"o":"m 58 527 q 131 701 64 641 q 308 761 198 761 q 475 711 416 761 q 535 558 535 661 l 535 79 q 538 40 535 61 q 545 0 542 19 l 395 0 q 391 29 393 15 q 387 58 388 44 q 302 4 342 22 q 205 -14 262 -14 q 86 33 126 -14 q 47 154 47 81 q 67 263 47 215 q 128 352 87 312 q 233 426 170 392 q 379 492 295 460 l 379 537 q 302 633 379 633 q 233 604 250 633 q 214 527 216 576 l 58 527 m 379 379 q 292 323 326 348 q 238 274 258 298 q 210 229 218 251 q 203 182 203 206 q 221 129 203 145 q 275 114 239 114 q 333 134 306 114 q 379 183 359 155 l 379 379 m 325 836 l 210 836 l 319 1036 l 507 1036 l 325 836 "},"à":{"x_min":92,"x_max":603,"ha":695,"o":"m 603 625 l 371 683 l 433 453 l 371 222 l 603 280 l 603 108 l 376 166 l 430 -110 l 264 -110 l 318 166 l 92 108 l 92 280 l 323 222 l 261 453 l 323 683 l 92 625 l 92 797 l 318 739 l 264 1017 l 430 1017 l 376 739 l 603 797 l 603 625 "},"Ü":{"x_min":88,"x_max":385,"ha":463,"o":"m 380 160 l 247 160 l 88 375 l 247 588 l 385 588 l 222 374 l 380 160 "},"ó":{"x_min":83,"x_max":612,"ha":695,"o":"m 83 1003 l 255 1003 l 255 245 q 347 136 255 136 q 440 245 440 136 l 440 1003 l 612 1003 l 612 252 q 541 54 612 122 q 347 -14 471 -14 q 153 54 223 -14 q 83 252 83 122 l 83 1003 m 271 1255 l 423 1255 l 557 1055 l 429 1055 l 347 1178 l 265 1055 l 138 1055 l 271 1255 "},"\u001a":{"x_min":20,"x_max":350,"ha":369,"o":"m 20 406 l 20 518 q 172 718 123 636 q 222 867 222 800 q 183 906 222 906 q 151 892 163 906 q 139 858 139 878 l 139 832 l 20 832 l 20 859 q 33 921 20 893 q 69 971 46 950 q 126 1005 93 993 q 198 1017 160 1017 q 261 1005 233 1017 q 309 976 288 994 q 339 934 329 958 q 350 883 350 910 q 343 808 350 846 q 318 728 337 771 q 264 635 300 686 q 170 517 229 583 l 346 517 l 346 406 l 20 406 "}}}
